<?xml version="1.0" encoding="UTF-8" standalone="no"?>
<!-- Created with Inkscape (http://www.inkscape.org/) -->

<svg
   width="276.98801mm"
   height="271.04099mm"
   viewBox="0 0 276.98801 271.04099"
   version="1.1"
   id="svg1"
   xml:space="preserve"
   inkscape:version="1.3 (0e150ed6c4, 2023-07-21)"
   sodipodi:docname="backwall.svg"
   xmlns:inkscape="http://www.inkscape.org/namespaces/inkscape"
   xmlns:sodipodi="http://sodipodi.sourceforge.net/DTD/sodipodi-0.dtd"
   xmlns:xlink="http://www.w3.org/1999/xlink"
   xmlns="http://www.w3.org/2000/svg"
   xmlns:svg="http://www.w3.org/2000/svg"><sodipodi:namedview
     id="namedview1"
     pagecolor="#ffffff"
     bordercolor="#666666"
     borderopacity="1.0"
     inkscape:showpageshadow="2"
     inkscape:pageopacity="0.0"
     inkscape:pagecheckerboard="0"
     inkscape:deskcolor="#d1d1d1"
     inkscape:document-units="mm"
     inkscape:zoom="1.0015858"
     inkscape:cx="426.82315"
     inkscape:cy="782.2595"
     inkscape:window-width="1920"
     inkscape:window-height="991"
     inkscape:window-x="-9"
     inkscape:window-y="-9"
     inkscape:window-maximized="1"
     inkscape:current-layer="g1"
     showguides="false" /><defs
     id="defs1"><linearGradient
       id="linearGradient1"
       inkscape:collect="always"><stop
         style="stop-color:#a0a0a0;stop-opacity:1;"
         offset="0"
         id="stop1" /><stop
         style="stop-color:#b2b2b2;stop-opacity:1;"
         offset="0.30935252"
         id="stop2" /></linearGradient><linearGradient
       inkscape:collect="always"
       xlink:href="#linearGradient1"
       id="linearGradient2"
       x1="1.156806"
       y1="159.15183"
       x2="275.69064"
       y2="159.15183"
       gradientUnits="userSpaceOnUse" /></defs><g
     inkscape:label="Layer 1"
     inkscape:groupmode="layer"
     id="layer1"><g
       id="g1"
       transform="matrix(0.72881887,0,0,0.71991386,1.4826064,66.826242)"
       style="fill:#b6b6b6;fill-opacity:1;stroke-width:0.86145881;stroke-dasharray:none"><path
         id="path102-8"
         style="fill:#1a1a1a;fill-opacity:1;stroke:#000000;stroke-width:0.861459;stroke-linecap:square;stroke-dasharray:none;stroke-opacity:1;paint-order:markers stroke fill"
         d="m 104.24414,55.671875 c -14.188553,0.122795 -28.378956,-0.04655 -42.566406,0.212891 -2.355847,0.624628 -3.644264,2.885373 -5.200364,4.564051 -0.904304,0.391684 -1.992416,-0.23197 -2.475417,-1.048426 -1.348687,-2.105229 -3.670585,-3.982613 -6.310937,-3.70092 -14.118101,0.07617 -28.23929,-0.07009 -42.3550785,0.202873 -2.2428603,0.04332 -3.8885784,2.153573 -4.3250922,4.203751 -0.32935123,1.353399 0.098321,2.720559 -0.0130889,4.089567 0.0294724,5.241426 -0.1587647,10.531108 0.2678686,15.720354 0.8199684,2.306137 3.2442085,3.368463 5.3398438,4.224609 0.785536,0.455984 0.3968471,1.450768 0.00391,2.044922 -1.3517631,3.663404 -0.5867851,7.608956 -0.7620451,11.409743 -0.014501,3.77021 -0.172723,7.58084 0.3535351,11.31742 0.8269443,1.77029 1.7693113,3.48351 2.6018694,5.25135 -2.3908474,0.56558 -5.1856543,0.91343 -6.7825605,3.00487 -1.3282461,1.80973 -1.13020438,4.15875 -1.03557253,6.27429 0.13896373,5.31795 -0.30476495,10.66839 0.36305483,15.96108 0.6284762,1.97421 2.6614972,3.03775 4.5,3.6582 1.2470945,0.3348 1.6149692,1.84461 1.5,2.99023 -0.091965,1.43502 -1.2510491,2.49106 -1.3928192,3.91527 -0.4436525,2.55927 0.031743,5.16015 -0.1052276,7.73825 3.817e-4,4.18067 -0.2130195,8.4924 0.390625,12.53789 0.6376889,1.50868 1.2970696,3.00791 1.9550781,4.50781 -2.3730584,0.58183 -5.0945452,1.25397 -6.4804687,3.47071 -1.25159173,2.41752 -0.6266688,5.2248 -0.6927257,7.82732 0.012596,3.6898 -0.14300192,7.38524 0.043128,11.07324 0.1025527,1.13122 0.1096569,2.20022 0.4121002,3.29621 1.0417858,2.09426 3.3787381,3.00304 5.4679666,3.6919 0.9819662,0.72851 0.7712953,2.16351 0.043232,2.99189 -1.6036419,2.66465 -1.1653393,5.90011 -1.1639366,8.86475 0.031048,5.08954 -0.077634,10.18905 0.3277356,15.26641 -0.084251,2.02881 -1.798264,3.43791 -3.4016325,4.4035 -1.6654498,1.40397 -2.00017875,3.76663 -1.75673496,5.81602 0.10736156,5.74182 -0.28221552,11.52125 0.34123306,17.20773 0.8556388,2.49752 3.7464007,3.7012 6.2319243,3.3767 6.5203853,-0.12777 13.0428293,-0.0143 19.5641153,-0.0489 7.644873,1.6e-4 15.290975,-0.008 22.933204,-0.23352 1.781775,-0.61631 2.904903,-2.19378 4.022276,-3.55027 0.540913,-0.53446 0.882097,-1.40605 1.682802,-1.56497 0.986101,0.0788 1.150084,1.24589 1.760045,1.83161 1.316164,1.86069 3.27806,3.60519 5.694132,3.55583 8.17081,-0.0551 16.343894,-0.0503 24.515745,-0.0423 6.385451,-0.0139 12.772677,-0.0118 19.155077,-0.23378 2.06262,-0.81453 3.41462,-2.6859 5.16016,-3.97265 1.44939,2.13824 3.6052,4.18854 6.33437,4.26994 14.32514,-0.19934 28.65572,0.14095 42.97801,-0.27308 1.49141,0.0895 2.58859,-1.14681 3.6399,-2.0277 0.7186,-0.68401 1.47653,-1.32394 2.24303,-1.95354 1.49656,2.17985 3.74432,4.24722 6.5418,4.26286 8.68516,-0.16776 17.37274,-0.0192 26.05898,-0.0713 5.85396,0.001 11.70891,-0.0467 17.55938,-0.26184 2.02388,-0.82408 3.3577,-2.67127 5.125,-3.88867 1.46827,2.17178 3.70157,4.20221 6.46953,4.22265 14.40895,-0.22713 28.82414,0.13425 43.23021,-0.29907 1.94829,-0.25663 3.31008,-2.10493 3.8,-3.88956 0.39472,-1.61904 -0.0186,-3.28079 0.0738,-4.92287 -0.0366,-5.09723 0.18574,-10.20965 -0.306,-15.26154 -0.6195,-1.808 -2.45,-2.6865 -3.90664,-3.70353 -1.19869,-1.14045 -1.12142,-3.03315 -0.46279,-4.43131 0.78911,-3.57294 0.0465,-7.24002 0.31318,-10.85305 0.006,-3.10615 0.11338,-6.24894 -0.26074,-9.27062 -0.11777,-1.07222 -0.64311,-2.1086 -0.38891,-3.21313 0.23445,-1.70604 1.41237,-3.2272 2.99046,-3.90155 1.83694,-1.36818 2.32568,-3.86169 2.03718,-6.02016 -0.12604,-5.7515 0.27468,-11.5372 -0.35885,-17.23165 -0.85469,-2.51126 -3.76569,-3.69924 -6.2566,-3.37112 -7.26748,0.11682 -14.53655,0.0132 -21.80472,0.0489 -6.87453,0.007 -13.7499,0.0301 -20.62227,0.21875 -2.09396,0.77427 -3.44064,2.68429 -5.18945,3.97852 -1.48218,-2.14194 -3.65707,-4.19264 -6.40894,-4.26786 -7.45611,0.12374 -14.91472,0.0324 -22.37192,0.0686 -1.69154,6.9e-4 -3.38307,0.002 -5.07461,0.002 1.28561,-2.75361 3.15976,-5.41154 3.29724,-8.54336 -0.29724,-6.17774 0.27043,-12.40707 -0.43065,-18.53644 -0.89237,-2.89329 1.71442,-6.32336 4.78966,-5.96317 7.1884,0.0271 14.38874,0.16203 21.56784,-0.20929 2.53229,-0.64155 3.95625,-3.46572 3.6964,-5.94362 -0.22229,-4.11111 0.0264,-8.23063 -0.0736,-12.34542 -0.0733,-1.98176 -0.0623,-3.99636 -0.38202,-5.94893 -1.07348,-2.46409 -4.03416,-3.60192 -6.57656,-3.13256 -13.99204,0.0598 -27.98601,-0.0953 -41.97617,0.20482 -2.1274,0.73511 -3.49588,2.66094 -5.27551,3.93819 -0.44509,-0.3461 -0.8148,-1.08644 -1.29262,-1.53595 -1.49158,-1.70673 -3.70818,-2.89405 -6.02205,-2.64969 -8.62181,0.10154 -17.24461,0.027 -25.86685,0.058 1.28934,-3.03702 2.96866,-6.17885 2.55918,-9.59023 -0.1222,-5.639487 0.19056,-11.330751 -0.30918,-16.921489 -0.94314,-2.539046 -3.92721,-3.87761 -6.50781,-3.367188 -7.06706,-0.0018 -14.13412,-0.0046 -21.20118,-0.0059 1.60159,-2.928973 2.74835,-6.245391 2.42774,-9.626953 -0.16496,-5.505279 0.25803,-11.046495 -0.34961,-16.496094 -0.73721,-2.409354 -3.49303,-3.664239 -5.86719,-3.451172 z M 55.990234,77.376953 c 3.137964,0.155399 5.277714,3.961088 3.899981,6.751245 -0.926201,2.015386 -3.405262,3.069859 -5.506558,2.378146 -2.515183,-0.659439 -4.091606,-3.718498 -2.992352,-6.120413 0.70951,-1.845382 2.596515,-3.162426 4.598929,-3.008978 z m 24.613282,27.941407 c 1.240135,-0.0331 1.788947,1.21979 2.275921,2.14421 1.153289,1.77054 1.408484,4.31926 -0.05154,5.99912 -1.311879,1.59068 -3.544121,1.90673 -5.479668,1.65702 -1.62701,-0.12852 -3.175281,-0.68679 -4.748617,-1.0816 0.376017,-2.09 0.01217,-4.50901 1.484375,-6.24609 1.540871,-1.642 3.971832,-1.64356 5.957032,-2.40625 0.18395,-0.0489 0.372886,-0.0668 0.5625,-0.0664 z m -53.445313,2.52344 c 3.104238,-0.12272 5.788848,3.31118 4.726563,6.27929 -0.767748,2.88305 -4.791406,4.33291 -7.105469,2.3418 -2.788992,-1.95907 -2.243773,-6.81605 0.806404,-8.23674 0.492315,-0.23652 1.024176,-0.38123 1.572502,-0.38435 z m 28.822266,3.38672 c 3.193572,-0.0995 5.5217,3.67775 4.353951,6.55653 -0.77487,2.52814 -3.915974,3.87924 -6.302932,2.77765 -2.394062,-0.99548 -3.652184,-4.00462 -2.658441,-6.40645 0.708014,-1.83381 2.679715,-2.97092 4.607422,-2.92773 z m 81.138671,56.97265 c 3.13596,-0.12332 5.79286,3.54489 4.42383,6.44727 -1.2563,2.94614 -5.7818,3.38205 -7.73416,0.92567 -1.86414,-2.15639 -0.95232,-5.90661 1.65842,-7.01119 0.51681,-0.23867 1.08437,-0.35156 1.65191,-0.36175 z m -55.023437,0.008 c 2.849417,0.0256 5.382633,3.11677 4.419922,5.90235 -0.596518,2.27605 -3.222431,3.5182 -5.426727,2.96918 -2.140112,-0.41488 -3.700324,-2.57935 -3.442414,-4.74067 0.197714,-2.21066 2.183571,-4.18665 4.449219,-4.13086 z m -53.919922,0.56836 c 3.205647,-0.0438 5.710977,3.81552 4.244141,6.69922 -1.17097,2.83355 -5.362134,3.5116 -7.483183,1.36466 -2.362407,-2.19568 -1.487864,-6.78956 1.626941,-7.80404 0.515373,-0.19224 1.064654,-0.2593 1.612101,-0.25984 z m 138.537109,2.6211 c 2.9607,-0.0299 5.60871,2.89646 5.24609,5.83203 -0.40875,1.77074 -2.32295,2.55625 -3.84375,2.95703 -2.50854,0.67089 -5.47265,-1.18059 -5.62549,-3.85113 -0.28493,-2.43404 1.74725,-4.88473 4.22315,-4.93793 z M 56,197.49609 c 2.640255,-0.0875 4.608992,2.75346 4.166132,5.2347 -0.248817,2.1725 -2.323145,3.80343 -4.46605,3.78475 -2.324808,0.09 -4.451963,-1.91056 -4.49891,-4.24015 -0.190963,-2.17087 1.399876,-4.34174 3.583984,-4.66601 0.400739,-0.0754 0.807248,-0.11109 1.214844,-0.11329 z m 55.82422,2.70313 c 1.6972,0.13513 2.48404,1.94017 3.96274,2.54707 2.34428,1.12676 5.01063,0.51618 7.50636,0.62704 5.80448,-0.0372 11.60915,-0.007 17.41371,-0.012 -1.48772,2.93499 -2.33934,6.22503 -2.13216,9.52849 0.0455,5.22646 0.0477,10.45368 0.0579,15.68049 -13.80098,-6.45207 -27.77438,-12.54222 -41.39026,-19.38193 -2.789843,-1.43648 -5.579889,-2.87256 -8.369503,-4.30947 5.879588,-0.83515 11.793063,-1.42257 17.723753,-1.72079 1.78664,-0.32376 2.75749,-1.97367 4.27039,-2.79484 0.30548,-0.11428 0.63057,-0.18068 0.95703,-0.16406 z m -30.121095,27.03711 c 2.539352,-0.18835 4.660131,2.16946 4.749559,4.60571 0.200944,2.40365 -1.854466,4.65405 -4.253465,4.74194 -2.217616,0.18532 -4.424034,-1.38696 -4.887454,-3.58096 -0.701359,-2.48506 1.104298,-5.28592 3.655032,-5.68661 0.243447,-0.0432 0.489086,-0.0722 0.736328,-0.0801 z m -25.71875,3.95508 c 3.062084,-0.0271 5.246864,3.7311 3.849609,6.41211 -1.193955,2.84868 -5.556813,3.43582 -7.498046,1.05273 -2.089506,-2.13526 -1.161912,-6.36265 1.771717,-7.2079 0.604661,-0.20623 1.24099,-0.26307 1.87672,-0.25694 z" /><path
         id="path102"
         style="fill:url(#linearGradient2);fill-opacity:1;stroke:#000000;stroke-width:0.86145881;stroke-linecap:square;stroke-dasharray:none;stroke-opacity:1;paint-order:markers stroke fill"
         d="M 5.9084468 56.754926 C 3.5149002 56.754926 1.5875354 58.681905 1.5875354 61.075449 L 1.5875354 78.585089 C 1.5875354 80.978634 3.5149002 82.905612 5.9084468 82.905612 L 48.448224 82.905612 C 50.841769 82.905612 52.769135 80.978634 52.769135 78.585089 L 52.769135 61.075449 C 52.769135 58.681905 50.841769 56.754926 48.448224 56.754926 L 5.9084468 56.754926 z M 62.721271 56.754926 C 60.327725 56.754926 58.401068 58.681905 58.401068 61.075449 L 58.401068 78.585089 C 58.401068 80.978634 60.327725 82.905612 62.721271 82.905612 L 105.26105 82.905612 C 107.65458 82.905612 109.58196 80.978634 109.58196 78.585089 L 109.58196 61.075449 C 109.58196 58.681905 107.65458 56.754926 105.26105 56.754926 L 62.721271 56.754926 z M 10.749796 85.542143 C 8.3562511 85.542143 6.4288848 87.468404 6.4288848 89.861948 L 6.4288848 107.37231 C 6.4288848 109.76585 8.3562511 111.69283 10.749796 111.69283 L 11.112827 111.69283 L 11.112827 111.69355 L 22.517083 111.69355 C 22.520583 111.69355 22.52347 111.69284 22.52701 111.69283 L 23.741601 111.69283 L 23.741601 111.51553 C 25.534527 110.98961 26.837995 109.34049 26.837995 107.37302 L 26.837995 89.862666 C 26.837995 87.895196 25.534527 86.24595 23.741601 85.720161 L 23.741601 85.542143 L 10.749796 85.542143 z M 33.086086 86.277185 C 30.692539 86.277185 28.765884 88.203442 28.765884 90.59699 L 28.765884 108.10735 C 28.765884 110.5009 30.692539 112.42787 33.086086 112.42787 L 68.159635 112.42787 C 73.256366 107.20844 71.263559 108.93398 73.25624 107.20793 C 74.599388 106.0445 73.256423 107.20859 79.946775 104.74152 L 79.946775 99.352168 L 79.946775 90.59699 C 79.946775 88.203442 78.020117 86.277185 75.626573 86.277185 L 33.086086 86.277185 z M 88.312071 86.277185 C 85.918525 86.277185 83.991159 88.203442 83.991159 90.59699 L 83.991159 108.10735 C 83.991159 110.5009 85.918525 112.42787 88.312071 112.42787 L 130.85185 112.42787 C 133.24541 112.42787 135.17276 110.5009 135.17276 108.10735 L 135.17276 90.59699 C 135.17276 88.203442 133.24541 86.277185 130.85185 86.277185 L 88.312071 86.277185 z M 5.9084468 116.15548 C 3.5149002 116.15548 1.5875354 118.08245 1.5875354 120.476 L 1.5875354 137.98564 C 1.5875354 140.3792 3.5149002 142.30616 5.9084468 142.30616 L 48.448224 142.30616 C 50.841769 142.30616 52.769135 140.3792 52.769135 137.98564 L 52.769135 120.476 C 52.769135 118.08245 50.841769 116.15548 48.448224 116.15548 L 5.9084468 116.15548 z M 62.721271 116.15548 C 60.327725 116.15548 58.401068 118.08245 58.401068 120.476 L 58.401068 137.98564 C 58.401068 140.3792 60.327725 142.30616 62.721271 142.30616 L 105.26105 142.30616 C 107.65458 142.30616 109.58196 140.3792 109.58196 137.98564 L 109.58196 120.476 C 109.58196 118.08245 107.65458 116.15548 105.26105 116.15548 L 86.513936 116.15548 L 84.004631 116.15548 L 77.532482 116.15548 L 62.721271 116.15548 z M 117.94726 116.15548 C 115.55371 116.15548 113.62634 118.08245 113.62634 120.476 L 113.62634 137.98564 C 113.62634 140.3792 115.55371 142.30616 117.94726 142.30616 L 160.48703 142.30616 C 162.88059 142.30616 164.80794 140.3792 164.80794 137.98564 L 164.80794 120.476 C 164.80794 118.08245 162.88059 116.15548 160.48703 116.15548 L 117.94726 116.15548 z M 173.17324 116.15548 C 170.77969 116.15548 168.85304 118.08245 168.85304 120.476 L 168.85304 137.98564 C 168.85304 140.3792 170.77969 142.30616 173.17324 142.30616 L 215.71373 142.30616 C 218.10727 142.30616 220.03393 140.3792 220.03393 137.98564 L 220.03393 120.476 C 220.03393 118.08245 218.10727 116.15548 215.71373 116.15548 L 173.17324 116.15548 z M 33.086086 146.3611 C 30.692539 146.3611 28.765884 148.28737 28.765884 150.6809 L 28.765884 168.19126 C 28.765884 170.58479 30.692539 172.51178 33.086086 172.51178 L 75.626573 172.51178 C 78.020117 172.51178 79.946775 170.58479 79.946775 168.19126 L 79.946775 150.6809 C 79.946775 148.28737 78.020117 146.3611 75.626573 146.3611 L 33.086086 146.3611 z M 88.312071 146.3611 C 85.918525 146.3611 83.991159 148.28737 83.991159 150.6809 L 83.991159 168.19126 C 83.991159 170.58479 85.918525 172.51178 88.312071 172.51178 L 130.85185 172.51178 C 133.24541 172.51178 135.17276 170.58479 135.17276 168.19126 L 135.17276 150.6809 C 135.17276 148.28737 133.24541 146.3611 130.85185 146.3611 L 88.312071 146.3611 z M 143.53806 146.3611 C 141.1445 146.3611 139.21714 148.28737 139.21714 150.6809 L 139.21714 168.19126 C 139.21714 170.58479 141.1445 172.51178 143.53806 172.51178 L 186.07783 172.51178 C 188.47138 172.51178 190.39803 170.58479 190.39803 168.19126 L 190.39803 150.6809 C 190.39803 148.28737 188.47138 146.3611 186.07783 146.3611 L 143.53806 146.3611 z M 10.749796 146.76738 C 8.3562511 146.76738 6.4288848 148.69435 6.4288848 151.0879 L 6.4288848 168.59754 C 6.4288848 170.99109 8.3562511 172.91878 10.749796 172.91878 L 11.112827 172.91878 L 22.517083 172.91878 C 22.520583 172.91878 22.52347 172.91879 22.52701 172.91878 L 23.741601 172.91878 L 23.741601 172.74148 C 25.534527 172.21557 26.837995 170.56573 26.837995 168.59826 L 26.837995 151.08862 C 26.837995 149.12115 25.534527 147.4719 23.741601 146.94611 L 23.741601 146.76738 L 10.749796 146.76738 z M 5.9084468 176.76411 C 3.5149002 176.76411 1.5875354 178.69039 1.5875354 181.08392 L 1.5875354 198.59428 C 1.5875354 200.9878 3.5149002 202.9148 5.9084468 202.9148 L 48.448224 202.9148 C 50.841769 202.9148 52.769135 200.9878 52.769135 198.59428 L 52.769135 181.08392 C 52.769135 178.69039 50.841769 176.76411 48.448224 176.76411 L 28.299333 176.76411 L 25.559589 178.63258 L 24.793113 184.42534 L 23.099917 180.90518 L 23.255906 176.76411 L 5.9084468 176.76411 z M 62.721271 176.76411 C 60.327725 176.76411 58.401068 178.69039 58.401068 181.08392 L 58.401068 198.59428 C 58.401068 200.9878 60.327725 202.9148 62.721271 202.9148 L 105.26105 202.9148 C 107.65458 202.9148 109.58196 200.9878 109.58196 198.59428 L 109.58196 181.08392 C 109.58196 178.69039 107.65458 176.76411 105.26105 176.76411 L 62.721271 176.76411 z M 117.94726 176.76411 C 115.55371 176.76411 113.62634 178.69111 113.62634 181.08464 L 113.62634 198.59499 C 113.62634 200.98852 115.55371 202.9148 117.94726 202.9148 L 160.48703 202.9148 C 162.88059 202.9148 164.80794 200.98852 164.80794 198.59499 L 164.80794 181.08464 C 164.80794 178.69111 162.88059 176.76411 160.48703 176.76411 L 144.39033 176.76411 L 142.24192 179.84641 L 139.90704 176.76411 L 117.94726 176.76411 z M 173.17324 176.76411 C 170.77969 176.76411 168.85304 178.69111 168.85304 181.08464 L 168.85304 198.59499 C 168.85304 200.98852 170.77969 202.9148 173.17324 202.9148 L 215.71373 202.9148 C 218.10727 202.9148 220.03393 200.98852 220.03393 198.59499 L 220.03393 181.08464 C 220.03393 178.69111 218.10727 176.76411 215.71373 176.76411 L 173.17324 176.76411 z M 228.39922 176.76411 C 226.00567 176.76411 224.07831 178.69111 224.07831 181.08464 L 224.07831 198.59499 C 224.07831 200.98852 226.00567 202.9148 228.39922 202.9148 L 241.7101 202.9148 L 246.49614 195.25429 L 248.5786 202.9148 L 270.939 202.9148 C 273.33255 202.9148 275.25991 200.98852 275.25991 198.59499 L 275.25991 181.08464 C 275.25991 178.69111 273.33255 176.76411 270.939 176.76411 L 228.39922 176.76411 z M 33.086086 206.08108 C 30.692539 206.08108 28.765884 208.00807 28.765884 210.4016 L 28.765884 227.91196 C 28.765884 230.30548 30.692539 232.23176 33.086086 232.23176 L 75.626573 232.23176 C 78.020117 232.23176 79.946775 230.30548 79.946775 227.91196 L 79.946775 210.4016 C 79.946775 208.00807 78.020117 206.08108 75.626573 206.08108 L 33.086086 206.08108 z M 143.53806 206.08108 C 141.1445 206.08108 139.21714 208.00732 139.21714 210.40088 L 139.21714 227.91124 C 139.21714 230.30479 141.1445 232.23176 143.53806 232.23176 L 186.07783 232.23176 C 188.47138 232.23176 190.39803 230.30479 190.39803 227.91124 L 190.39803 210.40088 C 190.39803 208.00732 188.47138 206.08108 186.07783 206.08108 L 143.53806 206.08108 z M 199.17528 206.08108 C 196.78174 206.08108 194.85437 208.00807 194.85437 210.4016 L 194.85437 227.91196 C 194.85437 230.30548 196.78174 232.23176 199.17528 232.23176 L 241.71506 232.23176 C 244.10862 232.23176 246.03597 230.30548 246.03597 227.91196 L 246.03597 210.4016 C 246.03597 208.00807 244.10862 206.08108 241.71506 206.08108 L 199.17528 206.08108 z M 87.900826 206.10548 C 87.900826 206.10548 83.580623 208.03173 83.580623 210.42529 L 83.580623 227.93564 C 83.580623 230.32919 85.507268 232.25617 87.900826 232.25617 L 130.44131 232.25617 C 132.83486 232.25617 134.76151 230.32919 134.76151 227.93564 C 92.846698 208.76717 87.900826 206.10548 87.900826 206.10548 z M 254.81251 206.39907 C 252.41898 206.39907 250.4916 208.32604 250.4916 210.71959 L 250.4916 228.22923 C 250.4916 230.62278 252.41898 232.54975 254.81251 232.54975 L 255.17484 232.54975 L 255.17484 232.55047 L 266.5798 232.55047 C 266.5838 232.55047 266.58643 232.54976 266.58973 232.54975 L 267.80432 232.54975 L 267.80432 232.37317 C 269.59725 231.84725 270.9 230.19742 270.9 228.22995 L 270.9 210.71959 C 270.9 208.75211 269.59725 207.10359 267.80432 206.5778 L 267.80432 206.39907 L 254.81251 206.39907 z M 10.749796 206.76013 C 8.3562511 206.76013 6.4288848 208.68639 6.4288848 211.07993 L 6.4288848 228.59029 C 6.4288848 230.98384 8.3562511 232.91081 10.749796 232.91081 L 11.112827 232.91081 L 11.112827 232.91153 L 22.517083 232.91153 C 22.520583 232.91153 22.52347 232.91082 22.52701 232.91081 L 23.741601 232.91081 L 23.741601 232.73351 C 25.534527 232.20759 26.837995 230.55848 26.837995 228.59101 L 26.837995 211.08065 C 26.837995 209.11317 25.534527 207.46394 23.741601 206.93815 L 23.741601 206.76013 L 10.749796 206.76013 z M 5.9077378 235.39804 C 3.5141902 235.39804 1.5875354 237.32432 1.5875354 239.71785 L 1.5875354 257.2282 C 1.5875354 259.62173 3.5141902 261.54873 5.9077378 261.54873 L 48.448224 261.54873 C 50.841762 261.54873 52.768426 259.62173 52.768426 257.2282 L 52.768426 239.71785 C 52.768426 237.32432 50.841762 235.39804 48.448224 235.39804 L 5.9077378 235.39804 z M 62.721271 235.39804 C 60.327723 235.39804 58.401068 237.32432 58.401068 239.71785 L 58.401068 257.2282 C 58.401068 259.62173 60.327723 261.54873 62.721271 261.54873 L 105.26105 261.54873 C 107.65458 261.54873 109.58196 259.62173 109.58196 257.2282 L 109.58196 239.71785 C 109.58196 237.32432 107.65458 235.39804 105.26105 235.39804 L 62.721271 235.39804 z M 117.94726 235.39804 C 115.55371 235.39804 113.62634 237.32504 113.62634 239.71856 L 113.62634 257.2282 C 113.62634 259.62173 115.55371 261.54873 117.94726 261.54873 L 160.48703 261.54873 C 162.88059 261.54873 164.80794 259.62173 164.80794 257.2282 L 164.80794 239.71856 C 164.80794 237.32504 162.88059 235.39804 160.48703 235.39804 L 117.94726 235.39804 z M 173.17253 235.39804 C 170.77898 235.39804 168.85233 237.32504 168.85233 239.71856 L 168.85233 257.2282 C 168.85233 259.62173 170.77898 261.54873 173.17253 261.54873 L 215.71302 261.54873 C 218.10656 261.54873 220.03322 259.62173 220.03322 257.2282 L 220.03322 239.71856 C 220.03322 237.32504 218.10656 235.39804 215.71302 235.39804 L 173.17253 235.39804 z M 228.39852 235.39804 C 226.00496 235.39804 224.07831 237.32504 224.07831 239.71856 L 224.07831 257.2282 C 224.07831 259.62173 226.00496 261.54873 228.39852 261.54873 L 270.939 261.54873 C 273.33255 261.54873 275.2592 259.62173 275.2592 257.2282 L 275.2592 239.71856 C 275.2592 237.32504 273.33255 235.39804 270.939 235.39804 L 228.39852 235.39804 z " /><path
         style="fill:none;stroke:#15e200;stroke-width:4.92163568;stroke-linecap:butt;stroke-linejoin:miter;stroke-opacity:1;stroke-dasharray:none"
         d="m 56.418008,257.94943 -2.061678,-25.71767 27.530044,-2.39705 -2.376956,-25.01921 30.072542,-6.22122 v -26.0825"
         id="path2" /><path
         style="fill:none;stroke:#00ea2b;stroke-width:3.54109304;stroke-linecap:butt;stroke-linejoin:miter;stroke-opacity:1;stroke-dasharray:none"
         d="m 6.7641138,144.20385 47.5922162,2.15725 5.645281,-32.03616 51.730469,4.33812 1.89426,10.56776"
         id="path3" /><path
         style="fill:none;stroke:#2aff6d;stroke-width:2.29860402;stroke-linecap:butt;stroke-linejoin:miter;stroke-opacity:1;stroke-dasharray:none"
         d="m 216.60523,263.40034 3.83994,-31.16858 -30.467,0.68139 -0.0156,-28.09765 29.65237,-1.22071 2.57032,-24.31072"
         id="path4" /><path
         style="fill:none;stroke:#38fd00;stroke-width:1.60833256;stroke-linecap:butt;stroke-linejoin:miter;stroke-opacity:1;stroke-dasharray:none"
         d="m 206.07042,112.42548 8.28127,-12.974811"
         id="path5" /><ellipse
         style="fill:#11f800;fill-opacity:1;stroke:none;stroke-width:1.60838;stroke-linecap:square;stroke-dasharray:none;stroke-opacity:1;paint-order:markers stroke fill"
         id="path6"
         cx="188.24194"
         cy="-134.94164"
         rx="7.4577823"
         ry="4.0516376"
         transform="matrix(0.50892871,0.86080867,-0.85524416,0.51822526,0,0)" /><ellipse
         style="fill:#11f800;fill-opacity:1;stroke:none;stroke-width:1.60838;stroke-linecap:square;stroke-dasharray:none;stroke-opacity:1;paint-order:markers stroke fill"
         id="path6-8"
         cx="121.31927"
         cy="5.7240186"
         rx="7.4577823"
         ry="4.0516376"
         transform="matrix(0.50892871,0.86080867,-0.85524416,0.51822526,0,0)"
         inkscape:transform-center-x="-108.33963"
         inkscape:transform-center-y="-5.2301889" /><ellipse
         style="fill:#11f800;fill-opacity:1;stroke:none;stroke-width:1.60838;stroke-linecap:square;stroke-dasharray:none;stroke-opacity:1;paint-order:markers stroke fill"
         id="path6-8-8"
         cx="208.92596"
         cy="35.796192"
         rx="7.4577823"
         ry="4.0516376"
         transform="matrix(0.50892871,0.86080867,-0.85524416,0.51822526,0,0)"
         inkscape:transform-center-x="-108.33963"
         inkscape:transform-center-y="-5.2301889" /><ellipse
         style="fill:#11f800;fill-opacity:1;stroke:none;stroke-width:1.60838;stroke-linecap:square;stroke-dasharray:none;stroke-opacity:1;paint-order:markers stroke fill"
         id="path6-8-8-0"
         cx="266.16891"
         cy="-59.288376"
         rx="7.4577823"
         ry="4.0516376"
         transform="matrix(0.50892871,0.86080867,-0.85524416,0.51822526,0,0)"
         inkscape:transform-center-x="-108.33963"
         inkscape:transform-center-y="-5.2301889" /><ellipse
         style="fill:#11f800;fill-opacity:1;stroke:none;stroke-width:1.60839;stroke-linecap:square;stroke-dasharray:none;stroke-opacity:1;paint-order:markers stroke fill"
         id="path7"
         cx="40.546795"
         cy="319.6235"
         rx="6.0427589"
         ry="3.718606"
         transform="matrix(0.78600862,-0.61821553,0.60880905,0.7933168,0,0)" /><ellipse
         style="fill:#11f800;fill-opacity:1;stroke:none;stroke-width:1.60839;stroke-linecap:square;stroke-dasharray:none;stroke-opacity:1;paint-order:markers stroke fill"
         id="path7-5"
         cx="-67.883286"
         cy="235.12616"
         rx="6.0427589"
         ry="3.718606"
         transform="matrix(0.78600862,-0.61821553,0.60880905,0.7933168,0,0)"
         inkscape:transform-center-x="-72.909383"
         inkscape:transform-center-y="-5.547453" /><ellipse
         style="fill:#11f800;fill-opacity:1;stroke:none;stroke-width:1.60839;stroke-linecap:square;stroke-dasharray:none;stroke-opacity:1;paint-order:markers stroke fill"
         id="path7-2"
         cx="23.08024"
         cy="159.70171"
         rx="6.0427589"
         ry="3.718606"
         transform="matrix(0.78600862,-0.61821553,0.60880905,0.7933168,0,0)" /></g></g></svg>
