<?xml version="1.0" encoding="UTF-8" standalone="no"?>
<!-- Created with Inkscape (http://www.inkscape.org/) -->

<svg
   width="57.061001mm"
   height="66.555mm"
   viewBox="0 0 57.061001 66.555"
   version="1.1"
   id="svg1"
   inkscape:version="1.3 (0e150ed6c4, 2023-07-21)"
   sodipodi:docname="backtree.svg"
   xmlns:inkscape="http://www.inkscape.org/namespaces/inkscape"
   xmlns:sodipodi="http://sodipodi.sourceforge.net/DTD/sodipodi-0.dtd"
   xmlns="http://www.w3.org/2000/svg"
   xmlns:svg="http://www.w3.org/2000/svg">
  <sodipodi:namedview
     id="namedview1"
     pagecolor="#ffffff"
     bordercolor="#666666"
     borderopacity="1.0"
     inkscape:showpageshadow="2"
     inkscape:pageopacity="0.0"
     inkscape:pagecheckerboard="0"
     inkscape:deskcolor="#d1d1d1"
     inkscape:document-units="mm"
     inkscape:zoom="4.0063432"
     inkscape:cx="145.64404"
     inkscape:cy="198.80973"
     inkscape:window-width="1920"
     inkscape:window-height="991"
     inkscape:window-x="-9"
     inkscape:window-y="-9"
     inkscape:window-maximized="1"
     inkscape:current-layer="layer1" />
  <defs
     id="defs1" />
  <g
     inkscape:label="Layer 1"
     inkscape:groupmode="layer"
     id="layer1">
    <path
       id="path15"
       style="fill:#b46733;fill-opacity:1;stroke:none;stroke-width:0.264583px;stroke-linecap:butt;stroke-linejoin:miter;stroke-opacity:1"
       d="m 27.019941,18.079712 -0.792717,3.06803 7.792806,6.568591 1.189075,9.062496 5.151107,7.662065 -11.227739,-0.925525 -3.434416,-5.019332 -2.509407,0.30179 4.754748,8.456332 15.032675,1.077453 2.535245,3.770829 6.415108,8.027469 -3.878161,6.42509 9.012736,0 V 40.596788 l -12.077816,1.994089 -4.622973,-8.764839 1.056783,-6.109705 7.660514,-2.371431 0.792716,-5.065841 -2.509924,3.322278 -7.396448,1.743563 -2.905766,5.700944 -1.584916,-4.884457 -7.528739,-5.013647 z"
       sodipodi:nodetypes="cccccccccccccccccccccccccc" />
    <path
       id="path16"
       style="fill:#569441;fill-opacity:1;stroke:none;stroke-width:3.473;stroke-linecap:square;paint-order:markers stroke fill"
       d="M 43.17296,5.0923912 A 6.1418228,6.0911446 0 0 0 37.974827,7.9464805 6.1418228,6.0911446 0 0 0 33.381309,5.89751 6.1418228,6.0911446 0 0 0 28.65705,8.1092613 6.1418228,6.0911446 0 0 0 23.922455,5.89751 a 6.1418228,6.0911446 0 0 0 -6.141744,6.091101 6.1418228,6.0911446 0 0 0 0.0047,0.06201 6.1418228,6.0911446 0 0 0 -0.870748,-0.06201 6.1418228,6.0911446 0 0 0 -6.141744,6.091101 6.1418228,6.0911446 0 0 0 6.141744,6.091101 6.1418228,6.0911446 0 0 0 4.699972,-2.179712 6.1418228,6.0911446 0 0 0 5.624979,3.662309 6.1418228,6.0911446 0 0 0 5.441012,-3.295923 6.1418228,6.0911446 0 0 0 4.350639,1.813326 6.1418228,6.0911446 0 0 0 2.679423,-0.6196 6.1418228,6.0911446 0 0 0 5.389852,3.203422 6.1418228,6.0911446 0 0 0 4.137732,-1.602487 6.1418228,6.0911446 0 0 0 5.253426,2.955376 6.1418228,6.0911446 0 0 0 6.141744,-6.091101 6.1418228,6.0911446 0 0 0 -3.572392,-5.530929 6.1418228,6.0911446 0 0 0 0.322978,-1.913578 6.1418228,6.0911446 0 0 0 -6.141744,-6.0911012 6.1418228,6.0911446 0 0 0 -2.353862,0.478007 6.1418228,6.0911446 0 0 0 -5.715413,-3.8664306 z" />
    <path
       id="path17"
       style="fill:#569441;fill-opacity:1;stroke:none;stroke-width:3.473;stroke-linecap:square;paint-order:markers stroke fill"
       d="m 23.650987,30.869578 a 3.632261,3.3472934 0 0 0 -3.632336,3.3476 3.632261,3.3472934 0 0 0 0.0041,0.05271 2.9058087,3.477648 0 0 0 -0.928625,-0.182935 2.9058087,3.477648 0 0 0 -2.905766,3.477307 2.9058087,3.477648 0 0 0 2.905766,3.477824 2.9058087,3.477648 0 0 0 1.361674,-0.414962 5.0855975,3.896426 0 0 0 3.723803,1.252637 5.0855975,3.896426 0 0 0 4.111377,-1.612305 3.6650648,3.1039329 0 0 0 3.218925,-3.076814 3.6650648,3.1039329 0 0 0 -3.665409,-3.104204 3.6650648,3.1039329 0 0 0 -0.56379,0.03979 3.632261,3.3472934 0 0 0 -3.629753,-3.256649 z" />
  </g>
</svg>
