<?xml version="1.0" encoding="UTF-8" standalone="no"?>
<!-- Created with Inkscape (http://www.inkscape.org/) -->

<svg
   width="57.061001mm"
   height="66.555mm"
   viewBox="0 0 57.061001 66.555"
   version="1.1"
   id="svg1"
   inkscape:version="1.3 (0e150ed6c4, 2023-07-21)"
   sodipodi:docname="backtree2.svg"
   xmlns:inkscape="http://www.inkscape.org/namespaces/inkscape"
   xmlns:sodipodi="http://sodipodi.sourceforge.net/DTD/sodipodi-0.dtd"
   xmlns="http://www.w3.org/2000/svg"
   xmlns:svg="http://www.w3.org/2000/svg">
  <sodipodi:namedview
     id="namedview1"
     pagecolor="#ffffff"
     bordercolor="#666666"
     borderopacity="1.0"
     inkscape:showpageshadow="2"
     inkscape:pageopacity="0.0"
     inkscape:pagecheckerboard="0"
     inkscape:deskcolor="#d1d1d1"
     inkscape:document-units="mm"
     inkscape:zoom="2.8329124"
     inkscape:cx="115.25241"
     inkscape:cy="110.6635"
     inkscape:window-width="1920"
     inkscape:window-height="991"
     inkscape:window-x="-9"
     inkscape:window-y="-9"
     inkscape:window-maximized="1"
     inkscape:current-layer="layer1" />
  <defs
     id="defs1" />
  <g
     inkscape:label="Layer 1"
     inkscape:groupmode="layer"
     id="layer1">
    <path
       id="path15"
       style="fill:#b46733;fill-opacity:1;stroke:none;stroke-width:0.264583px;stroke-linecap:butt;stroke-linejoin:miter;stroke-opacity:1"
       d="m 27.019941,18.079712 -0.792717,3.06803 7.792806,6.568591 1.189075,9.062496 5.151107,7.662065 -6.465239,-0.925525 -3.434416,-5.019332 -2.509407,0.30179 4.754748,8.456332 10.270175,1.077453 2.535245,3.770829 6.415108,8.027469 -3.878161,6.42509 h 9.012736 V 40.596788 l -12.077816,1.994089 -4.622973,-8.764839 1.056783,-6.109705 7.660514,-2.371431 0.792716,-5.065841 -2.509924,3.322278 -7.396448,1.743563 -2.905766,5.700944 -1.584916,-4.884457 -7.528739,-5.013647 z"
       sodipodi:nodetypes="cccccccccccccccccccccccccc" />
    <path
       id="path16"
       style="fill:#569441;fill-opacity:1;stroke:none;stroke-width:3.473;stroke-linecap:square;paint-order:markers stroke fill"
       d="M 42.719458,4.3901697 A 6.0911446,6.1418228 83.767574 0 0 37.861893,7.79171 6.0911446,6.1418228 83.767574 0 0 33.073084,6.2535309 a 6.0911446,6.1418228 83.767574 0 0 -4.456225,2.711554 6.0911446,6.1418228 83.767574 0 0 -4.946724,-1.6846821 6.0911446,6.1418228 83.767574 0 0 -5.444183,6.7218602 6.0911446,6.1418228 83.767574 0 0 0.0114,0.06113 6.0911446,6.1418228 83.767574 0 0 -0.872333,0.03289 6.0911446,6.1418228 83.767574 0 0 -5.444183,6.721861 6.0911446,6.1418228 83.767574 0 0 6.766707,5.38834 6.0911446,6.1418228 83.767574 0 0 4.435559,-2.677067 6.0911446,6.1418228 83.767574 0 0 5.989322,3.030005 6.0911446,6.1418228 83.767574 0 0 5.051042,-3.86713 6.0911446,6.1418228 83.767574 0 0 4.521783,1.330295 6.0911446,6.1418228 83.767574 0 0 2.596322,-0.906822 6.0911446,6.1418228 83.767574 0 0 5.705766,2.599356 6.0911446,6.1418228 83.767574 0 0 3.939307,-2.042216 6.0911446,6.1418228 83.767574 0 0 5.543219,2.367586 6.0911446,6.1418228 83.767574 0 0 5.444182,-6.72186 6.0911446,6.1418228 83.767574 0 0 -4.151727,-5.110414 6.0911446,6.1418228 83.767574 0 0 0.113328,-1.937331 6.0911446,6.1418228 83.767574 0 0 -6.766707,-5.388341 6.0911446,6.1418228 83.767574 0 0 -2.288056,0.7307217 6.0911446,6.1418228 83.767574 0 0 -6.101381,-3.2231023 z" />
    <path
       id="path17"
       style="fill:#569441;fill-opacity:1;stroke:none;stroke-width:3.473;stroke-linecap:square;paint-order:markers stroke fill"
       d="m 28.607743,32.138276 a 3.3472934,3.632261 83.767574 0 0 -3.247446,3.722148 3.3472934,3.632261 83.767574 0 0 0.0098,0.05195 3.477648,2.9058087 83.767574 0 0 -0.942996,-0.08104 3.477648,2.9058087 83.767574 0 0 -2.511089,3.772211 3.477648,2.9058087 83.767574 0 0 3.266152,3.141813 3.477648,2.9058087 83.767574 0 0 1.308577,-0.560335 3.896426,5.0855975 83.767574 0 0 3.837783,0.84097 3.896426,5.0855975 83.767574 0 0 3.912042,-2.049115 3.1039329,3.6650648 83.767574 0 0 2.865875,-3.408082 3.1039329,3.6650648 83.767574 0 0 -3.980744,-2.687933 3.1039329,3.6650648 83.767574 0 0 -0.556138,0.100761 3.3472934,3.632261 83.767574 0 0 -3.961848,-2.843348 z" />
  </g>
</svg>
