<?xml version="1.0" encoding="UTF-8" standalone="no"?>
<!-- Created with Inkscape (http://www.inkscape.org/) -->

<svg
   width="140mm"
   height="108mm"
   viewBox="0 0 140 108"
   version="1.1"
   id="svg1"
   inkscape:version="1.3 (0e150ed6c4, 2023-07-21)"
   sodipodi:docname="chest3.svg"
   xmlns:inkscape="http://www.inkscape.org/namespaces/inkscape"
   xmlns:sodipodi="http://sodipodi.sourceforge.net/DTD/sodipodi-0.dtd"
   xmlns="http://www.w3.org/2000/svg"
   xmlns:svg="http://www.w3.org/2000/svg">
  <sodipodi:namedview
     id="namedview1"
     pagecolor="#ffffff"
     bordercolor="#666666"
     borderopacity="1.0"
     inkscape:showpageshadow="2"
     inkscape:pageopacity="0.0"
     inkscape:pagecheckerboard="0"
     inkscape:deskcolor="#d1d1d1"
     inkscape:document-units="mm"
     inkscape:zoom="1.4164562"
     inkscape:cx="266.51018"
     inkscape:cy="187.43961"
     inkscape:window-width="1920"
     inkscape:window-height="991"
     inkscape:window-x="-9"
     inkscape:window-y="-9"
     inkscape:window-maximized="1"
     inkscape:current-layer="layer1" />
  <defs
     id="defs1" />
  <g
     inkscape:label="Layer 1"
     inkscape:groupmode="layer"
     id="layer1">
    <path
       style="fill:#ff0000;stroke:#ffff00;stroke-width:0.389544px;stroke-linecap:butt;stroke-linejoin:miter;stroke-opacity:1"
       d="m 120.60447,21.72387 -4.79284,20.55758 7.84528,15.800079 L 38.479552,69.004941 12.23376,49.983896 42.028607,15.24324 Z"
       id="path4" />
    <rect
       style="fill:#deaa87;stroke:none;stroke-width:1.873;stroke-linecap:square;stroke-opacity:1;paint-order:markers stroke fill"
       id="rect1"
       width="87.79245"
       height="48.192451"
       x="52.20755"
       y="59.807549" />
    <rect
       style="fill:#ffff00;stroke-width:1.873;stroke-linecap:square;paint-order:markers stroke fill"
       id="rect2"
       width="87.792244"
       height="3.735688"
       x="52.207649"
       y="59.807549" />
    <rect
       style="fill:#ffff00;stroke-width:1.30212;stroke-linecap:square;paint-order:markers stroke fill"
       id="rect3"
       width="23.909433"
       height="14.196351"
       x="88.279564"
       y="55.698124" />
    <path
       id="path1-3-7"
       style="fill:#d38d5f;stroke:none;stroke-width:1.63513;stroke-linecap:square;stroke-opacity:1;paint-order:markers stroke fill"
       d="m 36.749508,5.1976847 0.491777,18.3620543 19.205151,-0.350102 44.952874,-0.819474 38.41032,-0.700206 -0.0793,-2.961476 A 15.404278,19.209506 89.838289 0 0 123.08767,3.8147707 l -0.004,-0.190898 -2.96989,0.05414 z" />
    <path
       id="path1"
       style="fill:#784421;stroke:none;stroke-width:4.34555;stroke-linecap:square;stroke-dasharray:none;stroke-opacity:1;paint-order:markers stroke fill"
       d="M 11.156517,16.034064 C 2.0196959,28.021677 4.2658352,44.784137 16.173368,53.473738 L 53.406188,13.088611 49.260221,10.062964 C 37.352978,1.3729867 20.293217,4.0463607 11.156517,16.034064 Z" />
    <path
       style="fill:#f9f9f9;fill-opacity:1;stroke:none;stroke-width:0.264583px;stroke-linecap:butt;stroke-linejoin:miter;stroke-opacity:1"
       d="M 72.395055,60.802226 77.683044,50.504649 81.415613,60.8916 72.395055,60.80223"
       id="path5-7-2-8" />
    <path
       style="fill:#f9f9f9;fill-opacity:1;stroke:none;stroke-width:0.264583px;stroke-linecap:butt;stroke-linejoin:miter;stroke-opacity:1"
       d="M 82.563782,60.802226 87.851771,50.504649 91.58434,60.8916 82.563782,60.80223"
       id="path5-7-2-0-2" />
    <path
       style="fill:#f9f9f9;fill-opacity:1;stroke:none;stroke-width:0.264583px;stroke-linecap:butt;stroke-linejoin:miter;stroke-opacity:1"
       d="M 91.593492,60.802226 96.881481,50.504649 100.61405,60.8916 91.593492,60.80223"
       id="path5-7-2-0-0-0" />
    <path
       style="fill:#f9f9f9;fill-opacity:1;stroke:none;stroke-width:0.264583px;stroke-linecap:butt;stroke-linejoin:miter;stroke-opacity:1"
       d="m 101.39931,61.626639 5.28799,-10.297577 3.73257,10.386951 -9.02056,-0.08937"
       id="path5-7-2-0-3-3" />
    <path
       style="fill:#f9f9f9;fill-opacity:1;stroke:none;stroke-width:0.264583px;stroke-linecap:butt;stroke-linejoin:miter;stroke-opacity:1"
       d="m 109.74622,61.626639 5.288,-10.297577 3.73257,10.386951 -9.02057,-0.08937"
       id="path5-7-2-0-3-0-9" />
    <path
       style="fill:#f9f9f9;fill-opacity:1;stroke:none;stroke-width:0.264583px;stroke-linecap:butt;stroke-linejoin:miter;stroke-opacity:1"
       d="m 119.40755,61.626639 5.28799,-10.297577 3.73257,10.386951 -9.02056,-0.08937"
       id="path5-7-2-0-3-0-4-5" />
    <path
       style="fill:#f9f9f9;fill-opacity:1;stroke:none;stroke-width:0.264583px;stroke-linecap:butt;stroke-linejoin:miter;stroke-opacity:1"
       d="m 130.40357,61.626639 5.28799,-10.297577 3.73257,10.386951 -9.02056,-0.08937"
       id="path5-7-2-0-3-0-4-2-5" />
    <path
       style="fill:#800000;stroke:none;stroke-width:0.264583px;stroke-linecap:butt;stroke-linejoin:miter;stroke-opacity:1"
       d="M 25.369609,62.136062 55.304215,45.153026 76.918286,47.530505 91.653191,43.03971 115.04717,53.970706 128.44106,93.75928 109.75917,104.32586 87.087012,99.570896 69.393555,58.339769 Z"
       id="path6" />
    <path
       style="fill:#f9f9f9;fill-opacity:1;stroke:none;stroke-width:0.264583px;stroke-linecap:butt;stroke-linejoin:miter;stroke-opacity:1"
       d="m 52.057601,60.802226 5.28799,-10.297576 3.73257,10.38695 -9.02056,-0.08937"
       id="path5-4" />
    <path
       style="fill:#f9f9f9;fill-opacity:1;stroke:none;stroke-width:0.264583px;stroke-linecap:butt;stroke-linejoin:miter;stroke-opacity:1"
       d="M 62.226328,60.802226 67.514317,50.504649 71.246886,60.8916 62.226328,60.80223"
       id="path5-7-6" />
    <path
       style="fill:#f9f9f9;fill-opacity:1;stroke:none;stroke-width:0.593032px;stroke-linecap:butt;stroke-linejoin:miter;stroke-opacity:1"
       d="M 51.085024,22.597051 64.147429,43.539878 73.367632,22.415285 51.085024,22.597042"
       id="path5-7-6-9" />
    <path
       style="fill:#f9f9f9;fill-opacity:1;stroke:none;stroke-width:0.593032px;stroke-linecap:butt;stroke-linejoin:miter;stroke-opacity:1"
       d="m 117.29976,24.337584 13.0624,20.942827 9.2202,-21.124593 -22.2826,0.181757"
       id="path5-7-6-9-4" />
    <path
       id="path1-1"
       style="fill:#784421;stroke:none;stroke-width:3.173;stroke-linecap:square;stroke-dasharray:none;stroke-opacity:1;paint-order:markers stroke fill"
       d="m 12.23376,56.07188 0.05788,42.87852 39.91591,9.04958 V 59.80757 Z" />
    <ellipse
       style="fill:#ffff00;fill-opacity:1;stroke:none;stroke-width:3.473;stroke-linecap:square;stroke-dasharray:none;stroke-opacity:1;paint-order:markers stroke fill"
       id="path7"
       cx="92.198563"
       cy="13.718666"
       rx="13.766922"
       ry="9.280818" />
    <ellipse
       style="fill:#1a1a1a;fill-opacity:1;stroke:none;stroke-width:3.473;stroke-linecap:square;stroke-dasharray:none;stroke-opacity:1;paint-order:markers stroke fill"
       id="path8"
       cx="94.251366"
       cy="13.718666"
       rx="2.0528038"
       ry="9.280818" />
    <rect
       style="fill:#f9f9f9;fill-opacity:1;stroke:none;stroke-width:3.473;stroke-linecap:square;stroke-dasharray:none;stroke-opacity:1;paint-order:markers stroke fill"
       id="rect8"
       width="102.75871"
       height="7.4478083"
       x="46.843861"
       y="19.660784" />
  </g>
</svg>
