<?xml version="1.0" encoding="UTF-8" standalone="no"?>
<!-- Created with Inkscape (http://www.inkscape.org/) -->

<svg
   width="66.223999mm"
   height="53.866001mm"
   viewBox="0 0 66.223999 53.866001"
   version="1.1"
   id="svg1"
   xml:space="preserve"
   inkscape:version="1.3 (0e150ed6c4, 2023-07-21)"
   sodipodi:docname="door.svg"
   xmlns:inkscape="http://www.inkscape.org/namespaces/inkscape"
   xmlns:sodipodi="http://sodipodi.sourceforge.net/DTD/sodipodi-0.dtd"
   xmlns="http://www.w3.org/2000/svg"
   xmlns:svg="http://www.w3.org/2000/svg"><sodipodi:namedview
     id="namedview1"
     pagecolor="#ffffff"
     bordercolor="#666666"
     borderopacity="1.0"
     inkscape:showpageshadow="2"
     inkscape:pageopacity="0.0"
     inkscape:pagecheckerboard="true"
     inkscape:deskcolor="#d1d1d1"
     inkscape:document-units="mm"
     inkscape:zoom="2.8524696"
     inkscape:cx="115.16337"
     inkscape:cy="110.25534"
     inkscape:window-width="1902"
     inkscape:window-height="973"
     inkscape:window-x="0"
     inkscape:window-y="0"
     inkscape:window-maximized="0"
     inkscape:current-layer="g8" /><defs
     id="defs1" /><g
     inkscape:label="Layer 1"
     inkscape:groupmode="layer"
     id="layer1"><g
       id="g8"
       transform="translate(-74.052121,-123.06724)"><path
         id="rect8-3"
         style="fill:#1a1a1a;stroke-width:1.94467;stroke-linecap:square;paint-order:markers stroke fill"
         d="m 84.68123,139.12615 c -0.920346,1.45018 -1.686891,2.99659 -2.271166,4.60828 l -0.927454,3.326 c -0.03257,0.1682 -0.06305,0.33702 -0.09155,0.50609 -0.154869,1.86382 -0.266405,3.72872 -0.34516,5.59488 l -0.104647,3.41927 c -0.04974,2.13866 -0.06569,4.27779 -0.06536,6.41714 l 0.570356,3.40785 c 0.01673,2.66564 0.04479,5.33265 0.05172,7.99968 9.02e-4,0.33249 -0.14041,0.62813 -0.364505,0.84045 h 53.243206 c -0.41143,-0.93603 -0.82027,-1.87418 -1.22714,-2.81308 0.0882,-0.61522 0.17723,-1.23014 0.26671,-1.84524 -0.21561,-0.54346 -0.43109,-1.08731 -0.64599,-1.63087 0.002,-0.95678 0.005,-1.91334 0.009,-2.86995 l 0.56922,-3.40158 c 0.004,-2.13743 0.003,-4.27517 -0.0126,-6.41317 l -0.0341,-3.418 c -0.0133,-0.82165 -0.0296,-1.64337 -0.0495,-2.46507 -0.0561,-0.9702 -0.17514,-1.9358 -0.3537,-2.88985 0.0719,-0.18244 0.14128,-0.36702 0.20869,-0.55329 -0.13165,-0.20816 -0.2656,-0.41301 -0.4026,-0.6147 l -0.95532,-2.89326 c -0.6086,-1.60386 -1.38853,-3.14386 -2.32062,-4.5844 l -1.05488,-2.11761 c 5.8e-4,-3.9e-4 -0.0209,0.0152 -0.0205,0.0147 -0.32883,-0.075 -0.68628,-0.29966 -0.98205,-0.63688 -1.36067,-1.55139 -2.94018,-2.92021 -4.67821,-4.03169 l -2.56234,-1.37952 c -0.96898,-0.44061 -1.97276,-0.80293 -3.00301,-1.07645 l -2.8472,-0.42989 c -3.45076,-0.35417 -6.93041,-0.17974 -10.3874,-0.14956 -0.31204,-0.0884 -0.62313,-0.1779 -0.93314,-0.26897 -0.29086,0.0555 -0.58201,0.10938 -0.87344,0.1615 -0.21391,-0.0704 -0.4269,-0.14181 -0.63916,-0.21438 -0.0863,-0.0286 -0.17324,-0.0566 -0.26044,-0.0836 -0.46804,0.12625 -0.92311,0.27449 -1.364738,0.44184 l -2.819909,0.44296 c -0.865293,0.23312 -1.711836,0.5357 -2.529317,0.89903 -0.158699,0.0705 -0.316539,0.14299 -0.473114,0.21779 l -2.707327,1.55183 c -1.024631,0.70289 -1.987892,1.49619 -2.881311,2.35703 -0.58893,0.56742 -1.150449,1.16428 -1.681477,1.78781 z"
         sodipodi:nodetypes="ccccccccscccccccccccccccccscccccccccccsccscc" /><path
         id="rect8"
         style="fill:#1a1a1a;stroke-width:1.76725;stroke-linecap:square;paint-order:markers stroke fill"
         d="m 86.774576,142.21219 c -0.83638,1.31787 -1.53299,2.7232 -2.06396,4.18785 l -0.84284,3.02256 c -0.0296,0.15285 -0.0573,0.30627 -0.0832,0.45992 -0.14074,1.69377 -0.2421,3.38853 -0.31367,5.08444 l -0.0951,3.10732 c -0.0452,1.94354 -0.0597,3.88751 -0.0594,5.83168 l 0.51832,3.09694 c 0.0152,2.42245 -0.677283,5.14486 -0.670983,7.56857 8.2e-4,0.30215 -0.1276,0.57082 -0.33125,0.76377 h 49.499897 c -0.37389,-0.85063 -0.74543,-1.70319 -1.11518,-2.55643 0.0801,-0.55909 0.16106,-1.11791 0.24237,-1.6769 -0.19594,-0.49387 -0.39176,-0.98811 -0.58705,-1.48208 0.002,-0.86949 0.005,-1.73878 0.008,-2.60811 l 0.51728,-3.09125 c 0.004,-1.94242 0.003,-3.88513 -0.0114,-5.82807 l -0.031,-3.10617 c -0.0121,-0.74669 -0.42315,-1.79216 -0.44125,-2.53889 -0.051,-0.88169 -0.15916,-1.75919 -0.32143,-2.6262 0.0653,-0.1658 0.12839,-0.33354 0.18965,-0.50281 -0.11964,-0.18917 -0.24137,-0.37533 -0.36587,-0.55862 l -0.86816,-2.6293 c -0.55308,-1.45754 -1.26185,-2.85704 -2.10891,-4.16615 l -0.95864,-1.92442 c 5.3e-4,-3.5e-4 -0.019,0.0138 -0.0186,0.0134 -0.29883,-0.0682 -0.62367,-0.27232 -0.89245,-0.57878 -1.23654,-1.40985 -2.67194,-2.65379 -4.25141,-3.66386 l -2.32857,-1.25367 c -0.88057,-0.40041 -1.79278,-0.72967 -2.72903,-0.97824 l -2.58744,-0.39067 c -3.13594,-0.32186 -6.29813,-0.16334 -9.43973,-0.13591 -0.28357,-0.0803 -0.56628,-0.16167 -0.84801,-0.24443 -0.26432,0.0504 -0.52891,0.0994 -0.79375,0.14676 -0.1944,-0.064 -0.38796,-0.12887 -0.58085,-0.19482 -0.0784,-0.026 -0.15743,-0.0514 -0.23667,-0.076 -0.42534,0.11473 -0.83889,0.24945 -1.24023,0.40153 l -2.562644,0.40255 c -0.78635,0.21185 -1.55566,0.48682 -2.29856,0.81701 -0.14422,0.0641 -0.28766,0.12994 -0.42995,0.19792 l -2.46033,1.41025 c -0.93115,0.63876 -1.80653,1.35969 -2.61844,2.14199 -0.5352,0.51565 -1.04549,1.05806 -1.52807,1.6247 z"
         sodipodi:nodetypes="ccccccccscccccccccccccccccscccccccccccsccscc" /><path
         id="path1604"
         style="fill:#501616;fill-opacity:1;stroke:none;stroke-width:0.248848;stroke-linecap:square;paint-order:markers stroke fill"
         d="m 103.3098,134.40525 c -1.90013,0 -3.731055,0.29139 -5.45444,0.83044 l -0.333313,1.87172 0.332796,4.61574 -0.951363,-3.7114 -0.363802,-2.30425 c -6.901568,2.75907 -11.768791,9.6161 -11.768791,17.68419 v 1.76113 c 0,6.60037 3.25694,12.39193 8.22017,15.7918 l 0.07596,-1.80661 0.422714,2.13372 c 1.237046,0.78987 2.572258,1.43323 3.983736,1.90945 l 0.203605,-1.65416 0.245463,1.25057 0.478524,0.68936 c 1.562955,0.43555 3.207431,0.67231 4.908741,0.67231 h 1.42937 l 0.31213,-1.77095 0.23461,1.77095 h 5.73247 c 0.83168,0 1.64893,-0.0603 2.45101,-0.16795 l 0.8077,-1.25419 0.52348,-3.71191 0.33332,3.90208 -0.24082,0.53485 0.1416,0.24909 c 2.02641,-0.45531 3.92817,-1.24378 5.64358,-2.31408 l 0.003,0.0729 c 0.0195,-0.0117 0.0394,-0.0227 0.0584,-0.0351 l 8.81755,2.74143 c -0.002,-0.004 -0.005,-0.007 -0.007,-0.0109 -0.007,-0.0101 -0.0139,-0.0204 -0.0207,-0.0305 -0.0262,-0.039 -0.0517,-0.078 -0.0775,-0.1173 -0.0975,-0.14851 -0.19293,-0.29858 -0.28732,-0.44907 -0.0591,-0.0942 -0.11134,-0.19254 -0.1695,-0.28732 -0.21842,-0.35574 -0.43091,-0.71503 -0.63717,-1.07797 -0.0526,-0.0925 -0.11042,-0.18198 -0.16226,-0.27492 -0.71923,-1.28964 -1.37067,-2.61872 -1.9265,-3.98632 -0.1702,-0.41876 -0.33321,-0.84043 -0.48421,-1.26659 0.001,-10e-4 0.002,-0.003 0.003,-0.004 -0.0128,-0.0361 -0.0282,-0.0713 -0.0408,-0.10749 0.63489,-0.898 1.19171,-1.8484 1.67018,-2.83703 l 0.54881,-1.24282 c 1.05121,-2.59051 1.59112,-5.39409 1.59112,-8.19226 0,-0.28241 -0.009,-0.56477 -0.0191,-0.84698 0.007,-0.003 0.0125,-0.006 0.0191,-0.008 v -0.0212 c -0.006,-0.005 -0.0121,-0.0105 -0.0202,-0.0129 -0.0969,-2.46208 -0.61661,-4.91528 -1.53169,-7.20318 l -0.5488,-1.24178 c -0.8749,-1.83436 -2.0118,-3.53904 -3.40496,-5.0214 l 0.0264,-0.0227 c -2.15751,-2.18948 -4.84203,-3.83332 -7.84396,-4.72788 l -0.0847,2.98277 -0.68937,-3.19567 c -1.42246,-0.356 -2.90899,-0.54829 -4.44158,-0.54829 z m 1.85932,4.27313 0.0672,2.389 v 3.22977 l -0.47077,-2.89336 z m -12.808515,5.69525 0.03359,2.49029 -0.167948,2.89337 -0.37052,-2.65824 z" /><path
         style="fill:#1a1a1a;fill-opacity:1;stroke:none;stroke-width:0.248848;stroke-linecap:square;paint-order:markers stroke fill"
         d="m 107.18464,151.02806 c 1.8296,1.4e-4 3.31284,1.48337 3.31297,3.31298 1.5e-4,1.82981 -1.48317,3.31336 -3.31297,3.31349 -1.83002,1.6e-4 -3.31365,-1.48347 -3.3135,-3.31349 1.4e-4,-1.82982 1.48368,-3.31313 3.3135,-3.31298 z"
         id="path5" /><path
         style="fill:#1a1a1a;fill-opacity:1;stroke:none;stroke-width:0.248848;stroke-linecap:square;paint-order:markers stroke fill"
         d="m 118.3023,151.01776 c 1.82961,1.3e-4 3.31284,1.48335 3.31298,3.31298 1.5e-4,1.82981 -1.48317,3.31336 -3.31298,3.31349 -1.8298,-1.4e-4 -3.31313,-1.48368 -3.31298,-3.31349 1.4e-4,-1.82963 1.48338,-3.31285 3.31298,-3.31298 z"
         id="path4" /><path
         id="rect1"
         style="fill:#ffcc00;stroke:none;stroke-width:0.431;stroke-linecap:square;stroke-dasharray:none;stroke-opacity:1;paint-order:markers stroke fill"
         d="m 131.32374,144.93832 h -8.01192 c -0.002,-0.52677 -0.0212,-1.05446 0.003,-1.58078 0.0338,-0.28193 0.16471,-0.59347 0.4377,-0.71727 0.99209,-0.40091 1.42779,0.81554 0.7953,1.14566 -0.12991,0.07 -0.43417,-0.0872 -0.29352,-0.23409 0.0657,-0.0551 0.1365,-0.11787 0.1788,-0.19327 0.0542,-0.0964 0.0827,-0.36794 0.0827,-0.36794 0,0 -0.38618,-0.10519 -0.51263,-0.0305 -0.24828,0.12581 -0.49118,0.34732 -0.50178,0.64441 -0.0252,0.30614 0.12192,0.62935 0.40153,0.77308 0.32655,0.1884 0.77248,0.2098 1.07487,-0.0393 0.26469,-0.21264 0.455,-0.52479 0.5147,-0.85989 0.0608,-0.46442 -0.0797,-0.97666 -0.43977,-1.29139 -0.26058,-0.21335 -0.5974,-0.28746 -0.92811,-0.29146 -0.0473,0 -0.0944,0.001 -0.14108,0.003 -0.36128,0.008 -0.73283,0.15406 -0.94929,0.45372 -0.26257,0.32639 -0.39571,0.74723 -0.39171,1.16427 -0.0197,0.47364 -0.0197,0.94816 -0.0227,1.42214 h -4.33151 l -0.82218,-0.82218 -1.44332,1.44333 1.44332,1.4428 0.82269,-0.82217 h 4.331 c 0.003,0.47398 0.003,0.94798 0.0227,1.42162 -0.004,0.41704 0.12914,0.8384 0.39171,1.16479 0.21646,0.29965 0.58801,0.44571 0.94929,0.45371 0.37397,0.017 0.77137,-0.045 1.06919,-0.28887 0.36016,-0.31473 0.50057,-0.82698 0.43977,-1.29139 -0.0597,-0.33511 -0.25001,-0.64776 -0.5147,-0.86041 -0.30239,-0.24909 -0.74832,-0.22769 -1.07487,-0.0393 -0.27961,0.14373 -0.42663,0.46746 -0.40153,0.7736 0.0105,0.29709 0.25349,0.51809 0.50178,0.64389 0.12644,0.0747 0.51263,-0.0305 0.51263,-0.0305 0,0 -0.0286,-0.27206 -0.0827,-0.36846 -0.0423,-0.0754 -0.1131,-0.13765 -0.1788,-0.19275 -0.14066,-0.14681 0.16361,-0.30461 0.29352,-0.23461 0.63248,0.33012 0.19678,1.54657 -0.7953,1.14567 -0.273,-0.12381 -0.4039,-0.43534 -0.4377,-0.71727 -0.0256,-0.52632 -0.006,-1.0535 -0.003,-1.58027 h 8.03155 z"
         sodipodi:nodetypes="cccccccccccccccccccccccccccccccccccsccccccc" /><path
         id="rect1-4"
         style="fill:#ffcc00;stroke:none;stroke-width:0.431;stroke-linecap:square;stroke-dasharray:none;stroke-opacity:1;paint-order:markers stroke fill"
         d="m 131.16153,162.46504 h -8.01192 c -0.002,-0.52677 -0.0212,-1.05446 0.003,-1.58078 0.0338,-0.28193 0.16471,-0.59347 0.4377,-0.71727 0.99209,-0.40091 1.42779,0.81554 0.7953,1.14566 -0.12991,0.07 -0.43417,-0.0872 -0.29352,-0.23409 0.0657,-0.0551 0.1365,-0.11787 0.1788,-0.19327 0.0542,-0.0964 0.0827,-0.36794 0.0827,-0.36794 0,0 -0.38618,-0.10519 -0.51263,-0.0305 -0.24828,0.12581 -0.49118,0.34732 -0.50178,0.64441 -0.0252,0.30614 0.12192,0.62935 0.40153,0.77308 0.32655,0.1884 0.77248,0.2098 1.07487,-0.0393 0.26469,-0.21264 0.455,-0.52479 0.5147,-0.85989 0.0608,-0.46442 -0.0797,-0.97666 -0.43977,-1.29139 -0.26058,-0.21335 -0.5974,-0.28746 -0.92811,-0.29146 -0.0473,0 -0.0944,0.001 -0.14108,0.003 -0.36128,0.008 -0.73283,0.15406 -0.94929,0.45372 -0.26257,0.32639 -0.39571,0.74723 -0.39171,1.16427 -0.0197,0.47364 -0.0197,0.94816 -0.0227,1.42214 h -4.33151 l -0.82218,-0.82218 -1.44332,1.44333 1.44332,1.4428 0.82269,-0.82217 h 4.331 c 0.003,0.47398 0.003,0.94798 0.0227,1.42162 -0.004,0.41704 0.12914,0.8384 0.39171,1.16479 0.21646,0.29965 0.58801,0.44571 0.94929,0.45371 0.37397,0.017 0.77137,-0.045 1.06919,-0.28887 0.36016,-0.31473 0.50057,-0.82698 0.43977,-1.29139 -0.0597,-0.33511 -0.25001,-0.64776 -0.5147,-0.86041 -0.30239,-0.24909 -0.74832,-0.22769 -1.07487,-0.0393 -0.27961,0.14373 -0.42663,0.46746 -0.40153,0.7736 0.0105,0.29709 0.25349,0.51809 0.50178,0.64389 0.12644,0.0747 0.51263,-0.0305 0.51263,-0.0305 0,0 -0.0286,-0.27206 -0.0827,-0.36846 -0.0423,-0.0754 -0.1131,-0.13765 -0.1788,-0.19275 -0.14066,-0.14681 0.16361,-0.30461 0.29352,-0.23461 0.63248,0.33012 0.19678,1.54657 -0.7953,1.14567 -0.273,-0.12381 -0.4039,-0.43534 -0.4377,-0.71727 -0.0256,-0.52632 -0.006,-1.0535 -0.003,-1.58027 h 8.03155 z"
         sodipodi:nodetypes="cccccccccccccccccccccccccccccccccccsccccccc" /><path
         style="fill:#1a1a1a;fill-opacity:1;stroke:none;stroke-width:0.453;stroke-linecap:square;stroke-dasharray:none;stroke-opacity:1;paint-order:markers stroke fill"
         d="m 96.066465,150.9597 c 1.8296,1.4e-4 3.31284,1.48337 3.31297,3.31298 1.5e-4,1.82981 -1.48317,3.31336 -3.31297,3.31349 -1.83002,1.6e-4 -3.31365,-1.48347 -3.3135,-3.31349 1.4e-4,-1.82982 1.48368,-3.31313 3.3135,-3.31298 z"
         id="path5-1" /><path
         style="fill:#666666;fill-opacity:1;stroke:none;stroke-width:0.353;stroke-linecap:square;stroke-dasharray:none;stroke-opacity:1;paint-order:markers stroke fill"
         d="m 94.345113,154.16172 c -0.007,0.10352 -0.005,0.20792 0.009,0.31265 0.0315,0.27884 0.1384,0.5418 0.29766,0.76791 -0.48031,0.38925 -0.80944,0.96714 -0.8382,1.5937 -0.0792,0.97223 0.54577,1.95422 1.47433,2.26756 0.89669,0.34482 1.9907,0.0277 2.55644,-0.75086 0.61117,-0.76953 0.62156,-1.94682 0.009,-2.7187 -0.10651,-0.1455 -0.23141,-0.27555 -0.36949,-0.3886 0.12885,-0.18392 0.22204,-0.39273 0.26717,-0.61547 0.0369,-0.1525 0.0484,-0.30815 0.0388,-0.46199 0.9823,0.60234 1.581159,1.67183 1.581299,2.82412 -1.4e-4,1.82982 -1.483689,3.31313 -3.313499,3.31298 -1.8296,-1.4e-4 -3.31284,-1.48336 -3.31297,-3.31298 0.002,-1.15832 0.60887,-2.23151 1.60042,-2.83032 z"
         id="path7" /><path
         style="fill:#1a1a1a;fill-opacity:1;stroke:none;stroke-width:0.248848;stroke-linecap:square;paint-order:markers stroke fill"
         d="m 96.071623,153.07859 c 0.50854,-0.002 0.99287,0.34122 1.13378,0.83767 0.20664,0.60026 -0.16633,1.30263 -0.76946,1.48776 -0.60821,0.22247 -1.32571,-0.16648 -1.50534,-0.78083 -0.25157,-0.69119 0.31708,-1.49794 1.03922,-1.53944 0.034,-0.003 0.0679,-0.005 0.1018,-0.005 z"
         id="path6" /><path
         style="fill:#666666;fill-opacity:1;stroke:none;stroke-width:0.478;stroke-linecap:square;stroke-dasharray:none;stroke-opacity:1;paint-order:markers stroke fill"
         d="m 96.074178,152.48957 c 0.759339,-0.002 1.482528,0.5095 1.692932,1.25078 0.30855,0.89629 -0.24836,1.94506 -1.148939,2.22149 -0.908165,0.33219 -1.979518,-0.24858 -2.247737,-1.16591 -0.375638,-1.03207 0.473456,-2.23669 1.551738,-2.29865 0.05077,-0.005 0.101391,-0.007 0.152006,-0.007 z"
         id="path6-8" /><path
         style="color:#000000;fill:#b3b3b3;fill-opacity:1;stroke:#1a1a1a;stroke-width:1.665;stroke-linecap:square;stroke-dasharray:none;stroke-opacity:1;paint-order:markers stroke fill"
         d="m 82.753176,165.92943 c 0.595648,0.006 1.077645,0.48596 1.08132,1.07335 0.01516,2.42245 0.04089,4.84626 0.04723,7.26997 0.0016,0.58879 -0.478901,1.06202 -1.075576,1.06202 h -5.638604 c -0.59663,0 -1.07659,-0.46935 -1.077799,-1.05528 -0.005,-2.41302 -0.02777,-4.85826 -0.03842,-7.33426 -0.0026,-0.60125 0.475726,-1.08228 1.071483,-1.07592 z"
         id="path17" /><path
         style="color:#000000;fill:#ababab;fill-opacity:1;stroke:#1a1a1a;stroke-width:1.665;stroke-linecap:square;stroke-dasharray:none;stroke-opacity:1;paint-order:markers stroke fill"
         d="m 82.705286,156.96986 c 0.386844,0.0229 0.684178,0.51565 0.670496,1.10461 -0.04515,1.94354 -0.05986,3.88777 -0.05955,5.83194 9.5e-5,0.58843 -0.310756,1.05899 -0.698855,1.05351 l -2.998496,-0.0423 c -0.388012,-0.005 -0.701159,-0.49198 -0.70045,-1.09216 5.29e-4,-0.45363 0.0019,-0.90789 0.0042,-1.36274 0.0756,-0.21963 0.151416,-0.43917 0.227475,-0.65858 -0.04155,-0.36926 -0.08236,-0.73915 -0.122351,-1.10969 0.07643,-0.52687 0.154493,-1.0539 0.234469,-1.58095 -0.09284,-0.42036 -0.184431,-0.84195 -0.274614,-1.26488 0.01484,-0.60714 0.341286,-1.07876 0.728131,-1.05584 z"
         id="path16" /><path
         style="color:#000000;fill:#b3b3b3;fill-opacity:1;stroke:#1a1a1a;stroke-width:1.665;stroke-linecap:square;stroke-dasharray:none;stroke-opacity:1;paint-order:markers stroke fill"
         d="m 83.337092,147.9818 c 0.452488,0.10133 0.666173,0.73856 0.530273,1.44109 -0.02957,0.15285 -0.05731,0.30611 -0.08321,0.45976 -0.140745,1.69377 -0.241774,3.38887 -0.313344,5.08479 -0.02981,0.70645 -0.422132,1.25098 -0.886177,1.22073 l -4.832704,-0.31508 c -0.464039,-0.0303 -0.817187,-0.65248 -0.784995,-1.39802 0.07728,-1.78973 0.184666,-3.59183 0.332417,-5.4058 0.03672,-0.20883 0.07569,-0.4169 0.116861,-0.6242 0.191866,-0.96598 0.757016,-1.61961 1.208519,-1.51851 z"
         id="path15" /><path
         style="color:#000000;fill:#ababab;fill-opacity:1;stroke:#1a1a1a;stroke-width:1.665;stroke-linecap:square;stroke-dasharray:none;stroke-opacity:1;paint-order:markers stroke fill"
         d="m 86.797482,140.92227 c 0.318773,0.21925 0.296371,0.78702 -0.02307,1.29036 -0.836385,1.31787 -1.533165,2.72289 -2.064134,4.18755 -0.202795,0.55941 -0.63963,0.93846 -1.012431,0.83865 l -2.88096,-0.77134 c -0.372801,-0.0998 -0.505373,-0.74628 -0.25917,-1.43335 0.644617,-1.79891 1.481285,-3.51319 2.483797,-5.11532 0.382902,-0.61192 0.973773,-0.91018 1.292542,-0.69092 z"
         id="path14" /><path
         style="color:#000000;fill:#b3b3b3;fill-opacity:1;stroke:#1a1a1a;stroke-width:1.665;stroke-linecap:square;stroke-dasharray:none;stroke-opacity:1;paint-order:markers stroke fill"
         d="m 93.444721,134.49459 c 0.236175,0.40062 -0.08272,1.02148 -0.661972,1.41883 -0.931151,0.63876 -1.806287,1.35938 -2.618198,2.14168 -0.535204,0.51565 -1.045517,1.05828 -1.528095,1.62493 -0.456621,0.53617 -1.110155,0.78315 -1.482355,0.50641 l -3.883549,-2.88753 c -0.372123,-0.27668 -0.234227,-1.09921 0.374462,-1.82376 0.625071,-0.74404 1.286722,-1.45564 1.982116,-2.13182 0.113067,-0.11011 0.227322,-0.21935 0.342757,-0.32768 0.220501,-0.12951 0.442844,-0.25572 0.666911,-0.37858 0.371047,-0.40376 0.758331,-0.79861 1.161899,-1.18337 0.415603,-0.32261 0.843339,-0.63422 1.282902,-0.93395 0.803145,-0.54765 1.66158,-0.60784 1.89793,-0.20692 z"
         id="path13" /><path
         style="color:#000000;fill:#ababab;fill-opacity:1;stroke:#1a1a1a;stroke-width:1.665;stroke-linecap:square;stroke-dasharray:none;stroke-opacity:1;paint-order:markers stroke fill"
         d="m 98.469534,132.6406 c 0.08501,0.38073 -0.139044,0.75073 -0.497732,0.84736 -0.786357,0.21185 -1.555827,0.4868 -2.298734,0.81699 -0.144214,0.0641 -0.287475,0.13014 -0.429763,0.19812 -0.334182,0.15966 -0.743225,0.0218 -0.924473,-0.32316 l -1.400616,-2.66544 c -0.181248,-0.34492 0.0013,-0.79734 0.420788,-0.99901 0.178564,-0.0859 0.358626,-0.16963 0.54016,-0.25122 0.941488,-0.42502 1.924055,-0.77702 2.938026,-1.0481 0.462512,-0.12366 0.910367,0.10165 0.995383,0.48237 z"
         id="path12" /><path
         style="color:#000000;fill:#b3b3b3;fill-opacity:1;stroke:#1a1a1a;stroke-width:1.665;stroke-linecap:square;stroke-dasharray:none;stroke-opacity:1;paint-order:markers stroke fill"
         d="m 115.03092,132.37683 c -0.0872,0.53158 -0.69192,0.87976 -1.35762,0.81143 -3.13594,-0.32186 -6.29788,-0.16354 -9.43949,-0.13611 -0.28357,-0.0803 -0.56644,-0.16154 -0.84817,-0.2443 -0.26432,0.0504 -0.52882,0.0995 -0.79366,0.14685 -0.1944,-0.064 -0.38813,-0.12894 -0.58102,-0.19489 -0.0784,-0.026 -0.15727,-0.0512 -0.23651,-0.0758 -0.42535,0.11473 -0.83888,0.2492 -1.24022,0.40128 -0.672991,0.0568 -1.282969,-0.27259 -1.375155,-0.80395 l -0.959763,-5.53203 c -0.09304,-0.53627 0.732549,-0.92951 1.688256,-1.19211 0.744392,-0.20454 1.515092,-0.35733 2.307732,-0.45529 2.80479,-0.69939 6.17161,-0.95674 10.07209,-0.0496 0.43942,0.2023 0.88094,0.40977 1.32301,0.62334 0.32148,0.007 0.64659,0.0175 0.9754,0.0315 0.74928,0.25999 1.4604,0.60087 1.37275,1.13533 z"
         id="path11" /><path
         style="color:#000000;fill:#ababab;fill-opacity:1;stroke:#1a1a1a;stroke-width:1.665;stroke-linecap:square;stroke-dasharray:none;stroke-opacity:1;paint-order:markers stroke fill"
         d="m 119.89811,134.21455 c -0.16939,0.34896 -0.5716,0.49563 -0.90794,0.34269 -0.88057,-0.40041 -1.79276,-0.72963 -2.72901,-0.9782 -0.3576,-0.095 -0.58654,-0.46568 -0.50882,-0.84715 l 0.60057,-2.94785 c 0.0777,-0.38147 0.51151,-0.60454 0.9653,-0.48189 1.18809,0.32111 2.33765,0.73448 3.44108,1.23069 0.42147,0.18953 0.61719,0.63608 0.4478,0.98504 z"
         id="path10" /><path
         style="color:#000000;fill:#b3b3b3;fill-opacity:1;stroke:#1a1a1a;stroke-width:1.665;stroke-linecap:square;stroke-dasharray:none;stroke-opacity:1;paint-order:markers stroke fill"
         d="m 127.04002,139.93596 c -0.14979,0.11592 -0.34805,0.14477 -0.55917,0.10413 v 0 c 5.3e-4,-3.5e-4 -0.0186,0.0138 -0.0182,0.0134 -0.29883,-0.0682 -0.62409,-0.27234 -0.89287,-0.5788 -1.23655,-1.40985 -2.67193,-2.65389 -4.2514,-3.66396 -0.59217,-0.37868 -0.93433,-0.98932 -0.71633,-1.39787 l 2.27619,-4.26594 c 0.21804,-0.40864 1.07572,-0.38155 1.90541,0.13943 2.14135,1.3446 4.05854,2.98747 5.69684,4.86044 0.35908,0.41052 0.56729,0.8624 0.60857,1.22653 -0.004,0.007 -0.008,0.0139 -0.0124,0.0209 v 0 c 0.0187,0.25065 -0.0459,0.45328 -0.1957,0.56923 z"
         id="path9" /><path
         style="color:#000000;fill:#ababab;fill-opacity:1;stroke:#1a1a1a;stroke-width:1.665;stroke-linecap:square;stroke-dasharray:none;stroke-opacity:1;paint-order:markers stroke fill"
         d="m 130.57252,146.93492 c -0.36982,0.11611 -0.8129,-0.24757 -1.02414,-0.80427 -0.55308,-1.45755 -1.26148,-2.85688 -2.10855,-4.16599 -0.32353,-0.49999 -0.35139,-1.06993 -0.0357,-1.29636 l 2.43959,-1.74985 c 0.31568,-0.22643 0.90907,0.0593 1.29779,0.66236 1.01774,1.57886 1.86633,3.26383 2.52908,5.02293 0.25604,0.6796 0.12925,1.31791 -0.24011,1.43388 z"
         id="path8" /><path
         style="color:#000000;fill:#b3b3b3;fill-opacity:1;stroke:#1a1a1a;stroke-width:1.665;stroke-linecap:square;stroke-dasharray:none;stroke-opacity:1;paint-order:markers stroke fill"
         d="m 131.81904,155.94093 c -0.46607,0.0123 -0.84812,-0.54685 -0.85962,-1.25345 -0.0121,-0.74669 -0.027,-1.49341 -0.0451,-2.24014 -0.051,-0.88169 -0.15908,-1.75893 -0.32135,-2.62594 0.0653,-0.1658 0.12857,-0.33336 0.18983,-0.50263 -0.11964,-0.18917 -0.24177,-0.37541 -0.36627,-0.5587 -0.0202,-0.53197 0.16511,-0.99627 0.52974,-1.09618 l 4.67148,-1.28002 c 0.44789,-0.12273 1.01694,0.49002 1.22071,1.41891 0.31414,1.43206 0.51978,2.89504 0.61081,4.37721 0.0185,0.76913 0.0337,1.53676 0.0461,2.3029 0.0118,0.72501 -0.35643,1.31741 -0.8225,1.32973 z"
         id="path3" /><path
         style="color:#000000;fill:#ababab;fill-opacity:1;stroke:#1a1a1a;stroke-width:1.665;stroke-linecap:square;stroke-dasharray:none;stroke-opacity:1;paint-order:markers stroke fill"
         d="m 131.7003,164.68104 c -0.3886,0.002 -0.70004,-0.47055 -0.69883,-1.05892 0.004,-1.94242 0.003,-3.88514 -0.0113,-5.82808 -0.004,-0.58876 0.3034,-1.07013 0.69181,-1.07934 l 3.00163,-0.0712 c 0.38842,-0.009 0.70609,0.46456 0.71064,1.06149 0.015,1.96987 0.0162,3.93281 0.0126,5.88871 -0.001,0.59291 -0.31515,1.07062 -0.70371,1.07254 z"
         id="path2" /><path
         style="color:#000000;fill:#b3b3b3;fill-opacity:1;stroke:#1a1a1a;stroke-width:1.665;stroke-linecap:square;stroke-dasharray:none;stroke-opacity:1;paint-order:markers stroke fill"
         d="m 131.93596,175.36687 c -0.37389,-0.85063 -0.74534,-2.03354 -1.11509,-2.88678 0.0801,-0.55909 0.1609,-1.1181 0.24221,-1.67709 -0.19594,-0.49387 -0.39148,-0.98787 -0.58677,-1.48184 0.002,-0.86949 0.005,-1.73891 0.008,-2.60824 0.002,-0.58801 0.48387,-1.06359 1.08032,-1.06586 l 5.63723,-0.0214 c 0.59649,-0.002 1.07518,0.47333 1.07332,1.06501 -0.008,2.43669 -0.0156,4.85552 -0.007,7.2563 0.002,0.58297 -0.47515,1.38468 -1.07177,1.38827 z"
         id="path143" /></g></g></svg>
