<?xml version="1.0" encoding="UTF-8" standalone="no"?>
<!-- Created with Inkscape (http://www.inkscape.org/) -->

<svg
   width="62.223999mm"
   height="50.866001mm"
   viewBox="0 0 62.223999 50.866001"
   version="1.1"
   id="svg1"
   inkscape:version="1.3 (0e150ed6c4, 2023-07-21)"
   sodipodi:docname="mudgolt.svg"
   inkscape:export-filename="mudgolt.svg"
   inkscape:export-xdpi="96"
   inkscape:export-ydpi="96"
   xmlns:inkscape="http://www.inkscape.org/namespaces/inkscape"
   xmlns:sodipodi="http://sodipodi.sourceforge.net/DTD/sodipodi-0.dtd"
   xmlns="http://www.w3.org/2000/svg"
   xmlns:svg="http://www.w3.org/2000/svg">
  <sodipodi:namedview
     id="namedview1"
     pagecolor="#ffffff"
     bordercolor="#666666"
     borderopacity="1.0"
     inkscape:showpageshadow="2"
     inkscape:pageopacity="0.0"
     inkscape:pagecheckerboard="true"
     inkscape:deskcolor="#d1d1d1"
     inkscape:document-units="mm"
     inkscape:zoom="1.4164562"
     inkscape:cx="7.412866"
     inkscape:cy="24.35656"
     inkscape:window-width="1920"
     inkscape:window-height="991"
     inkscape:window-x="-9"
     inkscape:window-y="-9"
     inkscape:window-maximized="1"
     inkscape:current-layer="layer1" />
  <defs
     id="defs1" />
  <g
     inkscape:label="Layer 1"
     inkscape:groupmode="layer"
     id="layer1">
    <path
       id="path1604"
       style="fill:#f9f9f9;fill-opacity:1;stroke:none;stroke-width:0.248848;stroke-linecap:square;paint-order:markers stroke fill"
       d="m 27.258617,9.9361169 c -1.90014,0 -3.73106,0.2913901 -5.454449,0.8304401 l -0.33332,1.87172 0.3328,4.61574 -0.95136,-3.7114 -0.36381,-2.30426 c -6.90158,2.75909 -11.7687896,9.61609 -11.7687896,17.6842 v 1.76113 c 0,6.60037 3.2569296,12.39191 8.2201696,15.7918 l 0.076,-1.80661 0.42271,2.13372 c 1.23705,0.78987 2.57226,1.43322 3.98374,1.90944 l 0.2036,-1.65416 0.24547,1.25057 0.47852,0.68937 c 1.562959,0.43555 3.207429,0.67231 4.908749,0.67231 h 1.42937 l 0.31212,-1.77095 0.23461,1.77095 h 5.73247 c 0.8317,0 1.64893,-0.0603 2.45101,-0.16795 l 0.80771,-1.25419 0.52348,-3.71192 0.33331,3.90209 -0.24081,0.53485 0.14159,0.24908 c 2.02641,-0.45531 3.92817,-1.24377 5.64358,-2.31407 l 0.003,0.0729 c 0.0195,-0.0117 0.0394,-0.0227 0.0584,-0.0351 l 8.81755,2.74144 c -0.002,-0.004 -0.005,-0.007 -0.007,-0.0108 -0.007,-0.0101 -0.0134,-0.0204 -0.0202,-0.0305 -0.0262,-0.039 -0.0522,-0.078 -0.078,-0.1173 -0.0975,-0.14851 -0.19293,-0.29858 -0.28732,-0.44907 -0.0591,-0.0942 -0.11134,-0.19254 -0.1695,-0.28732 -0.21842,-0.35574 -0.43091,-0.71503 -0.63717,-1.07797 -0.0526,-0.0925 -0.11043,-0.18198 -0.16227,-0.27492 -0.71923,-1.28964 -1.37066,-2.61872 -1.92649,-3.98632 -0.1702,-0.41876 -0.33321,-0.84043 -0.48421,-1.26659 10e-4,-10e-4 0.002,-0.003 0.003,-0.004 -0.0128,-0.0361 -0.0282,-0.0713 -0.0408,-0.10748 0.63489,-0.89802 1.19171,-1.84841 1.67018,-2.83704 h -4.26847 c -0.003,0.52676 -0.0232,1.05395 0.003,1.58027 0.0338,0.28193 0.16471,0.59346 0.4377,0.71726 0.99209,0.40091 1.42779,-0.81554 0.7953,-1.14566 -0.12991,-0.07 -0.43365,0.0872 -0.293,0.23409 0.0657,0.0551 0.13595,0.1179 0.17828,0.19327 0.0541,0.0964 0.0832,0.36794 0.0832,0.36794 0,0 -0.3867,0.1052 -0.51315,0.0305 -0.24828,-0.1258 -0.49078,-0.3468 -0.50126,-0.64389 -0.0251,-0.30614 0.1214,-0.62986 0.40101,-0.7736 0.32655,-0.18841 0.77299,-0.20979 1.07539,0.0393 0.26469,0.21265 0.45503,0.52478 0.5147,0.85989 0.0608,0.46442 -0.0802,0.97666 -0.44029,1.2914 -0.29781,0.24385 -0.69521,0.30591 -1.06918,0.28887 -0.36129,-0.008 -0.73284,-0.15406 -0.9493,-0.45372 -0.26257,-0.32639 -0.39495,-0.74723 -0.39119,-1.16427 -0.0201,-0.47364 -0.0201,-0.94765 -0.0227,-1.42162 h -4.33107 l -0.82268,0.82217 -1.44333,-1.44332 1.44333,-1.44332 0.82217,0.82217 h 4.33152 c 0.003,-0.47397 0.003,-0.94798 0.0227,-1.42162 -0.004,-0.41704 0.12862,-0.83788 0.3912,-1.16427 0.21645,-0.29966 0.588,-0.44597 0.94929,-0.45372 0.0467,-0.002 0.0938,-0.003 0.14108,-0.003 0.33071,0.004 0.66752,0.0776 0.92811,0.29094 0.36012,0.31473 0.50111,0.82749 0.44028,1.29191 -0.0597,0.33511 -0.25001,0.64672 -0.5147,0.85938 -0.30239,0.24907 -0.74884,0.2282 -1.07538,0.0398 -0.27962,-0.14374 -0.42626,-0.46746 -0.40102,-0.7736 0.0106,-0.29708 0.25298,-0.51809 0.50127,-0.64389 0.12644,-0.0747 0.51314,0.0305 0.51314,0.0305 0,0 -0.0291,0.27159 -0.0832,0.36794 -0.0423,0.0754 -0.11257,0.13819 -0.17829,0.19327 -0.14065,0.14685 0.1631,0.30409 0.29301,0.23409 0.63248,-0.33012 0.19679,-1.54656 -0.7953,-1.14566 -0.273,0.1238 -0.40394,0.43533 -0.4377,0.71727 -0.0244,0.52632 -0.005,1.0535 -0.003,1.58026 h 4.81728 c 1.05121,-2.59051 1.59111,-5.39407 1.59111,-8.19226 0,-0.28241 -0.009,-0.56477 -0.0191,-0.84698 0.007,-0.003 0.0125,-0.006 0.0191,-0.008 v -0.0207 c -0.006,-0.005 -0.0121,-0.0105 -0.0202,-0.0129 -0.0969,-2.46208 -0.61661,-4.91528 -1.53169,-7.20318 h -4.85655 c -0.003,0.52677 -0.0226,1.05395 0.003,1.58027 0.0338,0.28193 0.1647,0.59346 0.4377,0.71727 0.99208,0.4009 1.42778,-0.81555 0.7953,-1.14567 -0.12991,-0.07 -0.43418,0.0878 -0.29352,0.23461 0.0657,0.0551 0.13649,0.11738 0.1788,0.19275 0.0541,0.0964 0.0827,0.36846 0.0827,0.36846 0,0 -0.38619,0.10468 -0.51263,0.03 -0.24829,-0.1258 -0.4913,-0.3468 -0.50178,-0.64389 -0.0251,-0.30614 0.12191,-0.62987 0.40152,-0.7736 0.32655,-0.18841 0.77248,-0.20979 1.07487,0.0393 0.26469,0.21265 0.45504,0.5253 0.5147,0.86041 0.0608,0.46441 -0.0796,0.97666 -0.43976,1.29139 -0.29782,0.24385 -0.69522,0.30592 -1.06919,0.28888 -0.36129,-0.008 -0.73284,-0.15406 -0.9493,-0.45372 -0.26257,-0.32639 -0.39546,-0.74775 -0.3917,-1.16479 -0.0201,-0.47364 -0.0201,-0.94764 -0.0227,-1.42162 h -4.33093 l -0.82268,0.82217 -1.44333,-1.4428 1.44333,-1.44333 0.82217,0.82218 h 4.33152 c 0.003,-0.47398 0.003,-0.9485 0.0227,-1.42214 -0.004,-0.41704 0.12914,-0.83788 0.39171,-1.16427 0.21646,-0.29966 0.58801,-0.44597 0.9493,-0.45372 0.0467,-0.002 0.0938,-0.003 0.14107,-0.003 0.33071,0.004 0.66753,0.0781 0.92811,0.29145 0.36012,0.31474 0.5006,0.82698 0.43977,1.2914 -0.0597,0.3351 -0.25001,0.64724 -0.5147,0.85989 -0.30239,0.24908 -0.74832,0.2277 -1.07487,0.0393 -0.27961,-0.14373 -0.42677,-0.46694 -0.40153,-0.77308 0.0106,-0.29709 0.2535,-0.5186 0.50178,-0.64441 0.12645,-0.0747 0.51263,0.0305 0.51263,0.0305 0,0 -0.0285,0.27159 -0.0827,0.36794 -0.0423,0.0754 -0.11308,0.1382 -0.1788,0.19327 -0.14065,0.14685 0.16361,0.30409 0.29352,0.23409 0.63249,-0.33012 0.19679,-1.54657 -0.7953,-1.14566 -0.27299,0.1238 -0.40393,0.43534 -0.43769,0.71727 -0.0243,0.52632 -0.005,1.05401 -0.003,1.58078 h 4.30775 c -0.8749,-1.83436 -2.0118,-3.53904 -3.40496,-5.0214 l 0.0263,-0.0227 c -2.15753,-2.18948 -4.84201,-3.83331 -7.84396,-4.72787 l -0.0848,2.98276 -0.68936,-3.19567 c -1.42248,-0.356 -2.90898,-0.5482801 -4.44159,-0.5482801 z m 1.85931,4.2731201 0.0672,2.389 v 3.22978 l -0.47077,-2.89336 z m -12.808519,5.69526 0.0336,2.49029 -0.16795,2.89336 -0.37052,-2.65823 z m 3.69538,6.58823 c 0.65106,4.5e-4 1.30268,0.18742 1.84485,0.55035 1.100359,0.72681 1.694219,2.14451 1.409219,3.43545 -0.11614,-0.18509 -0.24677,-0.36131 -0.395839,-0.52296 -0.38595,-0.44467 -0.89475,-0.7423 -1.38441,-1.05989 -0.20992,-0.3395 -0.5323,-0.60929 -0.91984,-0.72812 -0.1821,-0.0598 -0.3737,-0.0895 -0.56534,-0.0868 -0.57934,-0.008 -1.10961,0.3263 -1.42007,0.80046 -0.58227,0.37195 -1.18877,0.72728 -1.60249,1.2945 -0.0741,0.0932 -0.14163,0.19112 -0.20567,0.29094 -0.0299,-0.14492 -0.0492,-0.29236 -0.0568,-0.44184 -0.15308,-1.77544 1.37895,-3.49986 3.16622,-3.5295 0.0434,-0.002 0.0868,-0.003 0.13022,-0.003 z m 22.246189,0.0558 c 1.82961,1.3e-4 3.31284,1.48335 3.31298,3.31298 1.5e-4,1.82981 -1.48317,3.31336 -3.31298,3.31349 -1.8298,-1.4e-4 -3.31313,-1.48368 -3.31298,-3.31349 1.4e-4,-1.82963 1.48338,-3.31285 3.31298,-3.31298 z m -11.11766,0.0103 c 1.8296,1.4e-4 3.31284,1.48337 3.31297,3.31298 1.5e-4,1.82981 -1.48317,3.31336 -3.31297,3.31349 -1.83002,1.6e-4 -3.31365,-1.48347 -3.3135,-3.31349 1.4e-4,-1.82982 1.48368,-3.31313 3.3135,-3.31298 z m -11.113019,2.05053 c 0.50854,-0.002 0.99287,0.34122 1.13378,0.83767 0.20664,0.60026 -0.16633,1.30263 -0.76946,1.48776 -0.60821,0.22247 -1.32571,-0.16648 -1.50534,-0.78083 -0.25157,-0.69119 0.31708,-1.49794 1.03922,-1.53944 0.034,-0.003 0.0679,-0.005 0.1018,-0.005 z m -1.72651,1.08313 c -0.007,0.10352 -0.005,0.20792 0.009,0.31265 0.0315,0.27884 0.1384,0.5418 0.29766,0.76791 -0.48031,0.38925 -0.80944,0.96714 -0.8382,1.5937 -0.0792,0.97223 0.54577,1.95422 1.47433,2.26756 0.89669,0.34482 1.9907,0.0277 2.55644,-0.75086 0.61117,-0.76953 0.62156,-1.94682 0.009,-2.7187 -0.10651,-0.1455 -0.23141,-0.27555 -0.36949,-0.3886 0.12885,-0.18392 0.22204,-0.39273 0.26717,-0.61547 0.0369,-0.1525 0.0484,-0.30815 0.0388,-0.46199 0.9823,0.60234 1.581159,1.67183 1.581299,2.82412 -1.4e-4,1.82982 -1.483689,3.31313 -3.313499,3.31298 -1.8296,-1.4e-4 -3.31284,-1.48336 -3.31297,-3.31298 0.002,-1.15832 0.60887,-2.23151 1.60042,-2.83032 z m 0.67076,1.464 c 0.27959,0.21911 0.62264,0.35607 0.98288,0.36742 0.40766,0.0244 0.80538,-0.11786 1.12138,-0.36587 0.43988,0.34836 0.69393,0.91005 0.65629,1.46761 -0.55442,0.34277 -1.20328,0.52911 -1.86138,0.48731 -0.56356,-0.0196 -1.10622,-0.20247 -1.5782,-0.50075 -0.0291,-0.54653 0.22004,-1.10066 0.65887,-1.4366 0.006,-0.007 0.0135,-0.0127 0.0202,-0.0191 z" />
    <g
       id="rect143"
       style="fill:#f9f9f9;fill-opacity:1;stroke:none"
       transform="matrix(0.26458333,0,0,0.26458333,-150.66888,14.886217)">
      <path
         style="color:#000000;fill:#f9f9f9;fill-opacity:1;stroke:none;stroke-linecap:square;-inkscape-stroke:none;paint-order:markers stroke fill"
         d="m 780.67474,134.85715 c -1.41315,-3.21501 -2.81704,-6.43681 -4.21451,-9.66166 0.3027,-2.11311 0.60812,-4.22587 0.91544,-6.33861 -0.74058,-1.86658 -1.47964,-3.73369 -2.21771,-5.60067 0.008,-3.28626 0.0196,-6.57223 0.0309,-9.85789 0.008,-2.22242 1.8288,-4.019885 4.08311,-4.028463 l 21.30607,-0.08107 c 2.25443,-0.0086 4.06365,1.788963 4.05663,4.025253 -0.0289,9.20953 -0.059,18.35155 -0.0252,27.42539 0.008,2.20333 -1.79585,3.98438 -4.05078,3.99796 z m -0.89068,-39.138402 c -1.46872,0.0072 -2.64583,-1.778439 -2.64125,-4.002216 0.0151,-7.341402 0.012,-14.683976 -0.0428,-22.027368 -0.0166,-2.225252 1.1467,-4.044591 2.61473,-4.079408 l 11.34474,-0.269061 c 1.46803,-0.03482 2.66867,1.755831 2.68586,4.01193 0.0567,7.445186 0.0614,14.864154 0.0477,22.25655 -0.004,2.240933 -1.1911,4.046451 -2.65966,4.053683 z m 0.44878,-33.033471 c -1.76155,0.04657 -3.20552,-2.066835 -3.24897,-4.737464 -0.0459,-2.82213 -0.10212,-5.644358 -0.17051,-8.466663 -0.19258,-3.332351 -0.60124,-6.647922 -1.21454,-9.924798 0.24673,-0.626647 0.48594,-1.259956 0.71748,-1.899704 -0.45218,-0.714962 -0.91378,-1.418877 -1.38434,-2.111635 -0.0763,-2.010576 0.62403,-3.765428 2.00216,-4.143046 l 17.65601,-4.837877 c 1.69281,-0.463842 3.84355,1.852056 4.61368,5.362819 1.18732,5.412537 1.96455,10.941907 2.30859,16.543794 0.0698,2.906942 0.12727,5.808239 0.17444,8.703873 0.0446,2.740186 -1.34715,4.97918 -3.10867,5.025745 z m -4.71126,-34.038473 c -1.39776,0.438849 -3.07239,-0.935702 -3.87079,-3.039758 -2.09036,-5.508844 -4.7678,-10.79763 -7.96931,-15.7454471 -1.22277,-1.8897492 -1.32809,-4.0438298 -0.13495,-4.8996386 L 772.767,-1.651647 c 1.19314,-0.8558089 3.43587,0.2242409 4.90503,2.50338706 3.84661,5.96735154 7.05386,12.33575994 9.55873,18.98431194 0.96772,2.568567 0.48852,4.981072 -0.9075,5.419377 z M 762.17038,2.1940584 c -0.56613,0.4381148 -1.31547,0.5471588 -2.11337,0.3935514 v 0 c 0.002,-0.0013 -0.0704,0.05203 -0.0687,0.050735 C 758.8589,2.3804038 757.62957,1.6090122 756.61368,0.45074235 751.94011,-4.8778357 746.51507,-9.5797 740.54541,-13.397274 c -2.23812,-1.431265 -3.53131,-3.73918 -2.70741,-5.2833 l 8.60294,-16.12323 c 0.8241,-1.544487 4.0657,-1.442087 7.20154,0.526977 8.0933,5.081959 15.33937,11.291202 21.53137,18.370152 1.35716,1.551561 2.14408,3.259469 2.30013,4.635714 -0.0151,0.02634 -0.0308,0.05272 -0.0468,0.07912 v 0 c 0.0707,0.947338 -0.17337,1.7131941 -0.73967,2.1514467 z M 735.17733,-19.430178 c -0.64021,1.318912 -2.16037,1.873263 -3.43158,1.295218 -3.32812,-1.513371 -6.77579,-2.757647 -10.31437,-3.69715 -1.35156,-0.358845 -2.21684,-1.760039 -1.9231,-3.201808 l 2.26989,-11.141509 c 0.29373,-1.441769 1.93327,-2.284849 3.64839,-1.821301 4.49041,1.213632 8.83518,2.776001 13.00564,4.651429 1.59295,0.716336 2.33269,2.404093 1.69248,3.723005 z M 716.78166,-26.3759 c -0.3295,2.009126 -2.61513,3.325092 -5.13114,3.066852 -11.85238,-1.216509 -23.80302,-0.618114 -35.67683,-0.514437 -1.07176,-0.303314 -2.14086,-0.610571 -3.20568,-0.923354 -0.99902,0.19056 -1.99868,0.376056 -2.99966,0.55504 -0.73475,-0.241986 -1.46694,-0.48735 -2.196,-0.736613 -0.29642,-0.09814 -0.5944,-0.19364 -0.89389,-0.286493 -1.60761,0.43362 -3.17056,0.941876 -4.68744,1.516657 -2.5436,0.214647 -4.84903,-1.030247 -5.19745,-3.038537 l -3.62745,-20.908465 c -0.35165,-2.026867 2.76869,-3.513101 6.38081,-4.505615 2.81346,-0.773063 5.72633,-1.350544 8.72215,-1.720779 10.60077,-2.643382 23.32577,-3.616017 38.06775,-0.187616 1.6608,0.764579 3.32954,1.548726 5.00036,2.355919 1.21502,0.02701 2.44381,0.06631 3.68654,0.119249 2.83191,0.982634 5.51963,2.271004 5.18834,4.291032 z m -62.59423,0.996954 c 0.32131,1.43895 -0.52552,2.837392 -1.88119,3.202609 -2.97206,0.800671 -5.88029,1.839889 -8.68813,3.087838 -0.54506,0.242181 -1.08652,0.491844 -1.6243,0.748782 -1.26305,0.603448 -2.80904,0.08225 -3.49407,-1.221388 l -5.29367,-10.07408 c -0.68503,-1.303638 0.005,-3.013585 1.59038,-3.775806 0.67489,-0.32454 1.35544,-0.641104 2.04155,-0.949483 3.55838,-1.606377 7.27202,-2.936761 11.10435,-3.961338 1.74808,-0.467349 3.44076,0.384192 3.76208,1.823142 z m -18.99142,7.007176 c 0.89263,1.51418 -0.31266,3.860719 -2.50194,5.362529 -3.51931,2.414192 -6.82691,5.1378072 -9.89555,8.0945312 -2.02282,1.9488963 -3.95156,3.99981011 -5.77548,6.1414759 -1.72581,2.0264586 -4.19586,2.9599475 -5.6026,1.9139908 L 596.74246,-7.7727452 c -1.40645,-1.0457334 -0.88527,-4.1545078 1.41529,-6.8929408 2.36247,-2.81213 4.8632,-5.501648 7.49146,-8.057288 0.42734,-0.416176 0.85917,-0.829038 1.29546,-1.238492 0.83339,-0.489456 1.67374,-0.966482 2.52061,-1.430823 1.40238,-1.526021 2.86613,-3.018378 4.39143,-4.472605 1.57078,-1.219297 3.18742,-2.397026 4.84876,-3.529863 3.03551,-2.069858 6.27999,-2.297371 7.17328,-0.782069 z M 610.07259,5.9218294 c 1.20481,0.8286754 1.12014,2.9745561 -0.0872,4.8769786 -3.16114,4.980918 -5.79464,10.291236 -7.80145,15.826958 -0.76647,2.114288 -2.4175,3.546939 -3.82651,3.169697 l -10.88867,-2.915294 c -1.40901,-0.377243 -1.91007,-2.820604 -0.97954,-5.417391 2.43635,-6.799026 5.59856,-13.2781935 9.38758,-19.3335085 1.44719,-2.31278037 3.6804,-3.4400385 4.8852,-2.61136308 z M 596.99395,32.60354 c 1.71019,0.382964 2.51782,2.791395 2.00418,5.446615 -0.11176,0.57771 -0.21662,1.156968 -0.31448,1.73767 -0.53195,6.40166 -0.91379,12.80833 -1.18429,19.218109 -0.11268,2.670074 -1.59546,4.728137 -3.34933,4.613789 l -18.26534,-1.190858 c -1.75385,-0.114346 -3.08858,-2.466054 -2.96691,-5.283826 0.29208,-6.76434 0.69795,-13.575438 1.25638,-20.431393 0.1388,-0.789267 0.28606,-1.575695 0.44168,-2.359182 0.72516,-3.650944 2.86116,-6.121357 4.56763,-5.739227 z m -2.38793,33.970609 c 1.46209,0.08662 2.58587,1.948896 2.53416,4.174892 -0.17065,7.345675 -0.22626,14.69396 -0.22507,22.041996 3.6e-4,2.223965 -1.17451,4.002465 -2.64134,3.981754 l -11.3329,-0.160016 c -1.4665,-0.02071 -2.65005,-1.859452 -2.64737,-4.127845 0.002,-1.714528 0.007,-3.431381 0.016,-5.150525 0.28572,-0.830092 0.57228,-1.659828 0.85975,-2.489121 -0.15703,-1.395636 -0.3113,-2.793626 -0.46243,-4.19409 0.28887,-1.991322 0.58391,-3.983244 0.88618,-5.975265 -0.35091,-1.588748 -0.69706,-3.182175 -1.03791,-4.780648 0.0561,-2.294673 1.2899,-4.077191 2.75199,-3.990566 z m 0.18102,33.862931 c 2.25127,0.024 4.07299,1.83671 4.08688,4.05678 0.0573,9.15569 0.15456,18.31656 0.1785,27.47703 0.006,2.22537 -1.81002,4.01394 -4.06517,4.01394 h -21.31126 c -2.25498,0 -4.069,-1.7739 -4.07357,-3.98847 -0.0188,-9.12007 -0.10495,-18.36193 -0.1452,-27.72003 -0.01,-2.27242 1.79802,-4.09052 4.0497,-4.06648 z"
         id="path143"
         sodipodi:nodetypes="cccccscscsccssssscscssccccssscssssssssssssssscsssssscsscssssssssssssccccccsssccccssssssssscssssscssssccccsssssssssssssscsssscssssssssscccccsscscssscsc" />
    </g>
  </g>
</svg>
