<?xml version="1.0" encoding="UTF-8" standalone="no"?>
<!-- Created with Inkscape (http://www.inkscape.org/) -->

<svg
   width="500mm"
   height="250mm"
   viewBox="0 0 499.99998 250"
   version="1.1"
   id="svg1"
   inkscape:version="1.3 (0e150ed6c4, 2023-07-21)"
   sodipodi:docname="steps.svg"
   xmlns:inkscape="http://www.inkscape.org/namespaces/inkscape"
   xmlns:sodipodi="http://sodipodi.sourceforge.net/DTD/sodipodi-0.dtd"
   xmlns="http://www.w3.org/2000/svg"
   xmlns:svg="http://www.w3.org/2000/svg">
  <sodipodi:namedview
     id="namedview1"
     pagecolor="#ffffff"
     bordercolor="#666666"
     borderopacity="1.0"
     inkscape:showpageshadow="2"
     inkscape:pageopacity="0.0"
     inkscape:pagecheckerboard="0"
     inkscape:deskcolor="#d1d1d1"
     inkscape:document-units="mm"
     inkscape:zoom="0.37670237"
     inkscape:cx="715.41891"
     inkscape:cy="755.23815"
     inkscape:window-width="1920"
     inkscape:window-height="991"
     inkscape:window-x="-9"
     inkscape:window-y="-9"
     inkscape:window-maximized="1"
     inkscape:current-layer="g4" />
  <defs
     id="defs1" />
  <g
     inkscape:label="Layer 1"
     inkscape:groupmode="layer"
     id="layer1">
    <g
       id="g3"
       transform="matrix(1,0,0,0.51760849,-6.3359103,-28.094503)">
      <g
         id="g4"
         transform="matrix(1,0,0,5.4825854,186.83992,-251.54425)">
        <path
           id="rect11"
           style="fill:#4d4d4d;stroke-width:1.04029;stroke-linecap:square;paint-order:markers stroke fill"
           d="m 47.661812,54.625421 71.232348,0.709461 v 12.162203 l -13.90616,6.233828 13.90616,6.435131 v 15.202752 l -15.3961,6.826114 15.3961,8.78204 v 14.8987 l -18.62432,3.75001 18.62432,11.45274 -1.84961,3.95272 -65.810972,-0.34368 -28.561843,-4.89411 -2.573914,-17.26228 15.396103,-6.58786 -15.396103,-5.16894 V 99.017457 L 31.024088,89.393675 20.097821,78.443066 V 62.834908 Z"
           sodipodi:nodetypes="cccccccccccccccccccccc" />
        <path
           id="rect1-8"
           style="fill:#999999;stroke-width:0.475197;stroke-linecap:square;paint-order:markers stroke fill"
           d="m 112.12887,58.116668 -11.21044,1.73254 v 3.168125 l -8.710378,1.34617 v 3.163804 l -9.289604,1.435669 v 3.187008 l 21.572182,-3.940965 7.63824,-3.737215 z"
           sodipodi:nodetypes="cccccccccc" />
        <path
           id="rect2"
           style="fill:#f2f2f2;stroke-width:0.475197;stroke-linecap:square;paint-order:markers stroke fill"
           d="m 54.623809,57.970027 -12.139996,1.879181 h 58.434617 l 12.14,-1.879181 z m 3.429375,2.635111 -24.279992,3.758365 h 58.43462 2.4e-4 l 8.710378,-1.348332 v -2.410033 z m -9.289362,4.599471 -24.279992,3.758367 h 58.434618 l 9.289604,-1.438001 v -2.320366 z" />
        <path
           id="rect1"
           style="fill:#b3b3b3;stroke-width:0.672112;stroke-linecap:square;paint-order:markers stroke fill"
           d="m 42.483813,59.849208 v 3.187008 h 58.434867 v -3.187008 z m -8.710621,4.514295 v 3.187008 h 58.43486 v -3.187008 z m -9.289362,4.599473 v 3.187008 h 58.434618 v -3.187008 z" />
        <path
           id="rect2-0"
           style="fill:#f2f2f2;stroke-width:0.475197;stroke-linecap:square;paint-order:markers stroke fill"
           d="m 82.918448,72.21235 12.140004,1.879181 H 36.623827 L 24.483828,72.21235 Z m -3.42937,2.635111 24.279992,3.758366 h -58.434624 -2.39e-4 l -8.71038,-1.348333 v -2.410033 z m 9.289364,4.599471 24.279988,3.758367 H 54.623811 l -9.289604,-1.438 v -2.320367 z" />
        <path
           id="rect1-9"
           style="fill:#b3b3b3;stroke-width:0.672112;stroke-linecap:square;paint-order:markers stroke fill"
           d="m 95.058452,74.091531 v 3.187008 H 36.623589 v -3.187008 z m 8.710618,4.514296 v 3.187007 H 45.334207 v -3.187007 z m 9.28936,4.599472 v 3.187008 H 54.623811 v -3.187008 z" />
        <path
           id="rect1-8-7"
           style="fill:#999999;stroke-width:0.475197;stroke-linecap:square;paint-order:markers stroke fill"
           d="m 112.12887,86.220049 -11.21044,1.732539 v 3.168125 l -8.710378,1.346171 v 3.163803 l -9.289604,1.435669 v 3.187004 l 18.762712,-3.690127 10.44771,-3.988049 z"
           sodipodi:nodetypes="cccccccccc" />
        <path
           id="rect1-8-7-7"
           style="fill:#999999;stroke-width:0.475197;stroke-linecap:square;paint-order:markers stroke fill"
           d="m 25.413385,72.382196 11.210442,1.732539 v 3.168125 l 8.71038,1.346171 v 3.163803 l 9.2896,1.435669 v 3.187008 L 32.085872,82.331213 25.413385,78.737331 Z"
           sodipodi:nodetypes="cccccccccc" />
        <path
           id="rect1-8-7-7-6"
           style="fill:#999999;stroke-width:0.475197;stroke-linecap:square;paint-order:markers stroke fill"
           d="m 25.413385,100.31573 11.210442,1.73254 v 3.16813 l 8.71038,1.34617 v 3.1638 l 9.2896,1.43567 v 3.187 l -20.51863,-3.7618 -8.691792,-3.91637 z"
           sodipodi:nodetypes="cccccccccc" />
        <path
           id="rect1-8-7-7-6-9"
           style="fill:#999999;stroke-width:0.475197;stroke-linecap:square;paint-order:markers stroke fill"
           d="m 25.413385,128.80038 11.210442,1.73254 v 3.16813 l 8.71038,1.34616 v 3.1638 l 9.2896,1.43568 v 3.187 l -19.728467,-3.47514 -9.481955,-4.20303 z"
           sodipodi:nodetypes="cccccccccc" />
        <path
           id="rect2-02"
           style="fill:#f2f2f2;stroke-width:0.475197;stroke-linecap:square;paint-order:markers stroke fill"
           d="m 54.623809,86.073407 -12.139996,1.879181 h 58.434617 l 12.14,-1.879181 z m 3.429375,2.635111 -24.279992,3.758366 h 58.43462 2.4e-4 l 8.710378,-1.348333 V 88.708518 Z M 48.763822,93.30799 24.48383,97.066356 h 58.434618 l 9.289604,-1.438 V 93.30799 Z" />
        <path
           id="rect1-4"
           style="fill:#b3b3b3;stroke-width:0.672112;stroke-linecap:square;paint-order:markers stroke fill"
           d="m 42.483813,87.952588 v 3.187008 h 58.434857 v -3.187008 z m -8.710621,4.514296 v 3.187007 h 58.43486 v -3.187007 z m -9.289362,4.599472 v 3.187004 h 58.434618 v -3.187004 z" />
        <path
           id="rect2-0-2"
           style="fill:#f2f2f2;stroke-width:0.475197;stroke-linecap:square;paint-order:markers stroke fill"
           d="m 82.918448,100.31573 12.140004,1.87918 H 36.623827 l -12.139999,-1.87918 z m -3.42937,2.63511 24.279992,3.75837 h -58.434624 -2.39e-4 l -8.71038,-1.34834 v -2.41003 z m 9.289364,4.59947 24.279988,3.75838 H 54.623811 l -9.289604,-1.43801 v -2.32037 z" />
        <path
           id="rect1-9-0"
           style="fill:#b3b3b3;stroke-width:0.672112;stroke-linecap:square;paint-order:markers stroke fill"
           d="m 95.058452,102.19491 v 3.18701 H 36.623589 v -3.18701 z m 8.710618,4.5143 v 3.187 H 45.334207 v -3.187 z m 9.28936,4.59948 v 3.187 H 54.623811 v -3.187 z" />
        <path
           id="rect1-8-7-2"
           style="fill:#999999;stroke-width:0.475197;stroke-linecap:square;paint-order:markers stroke fill"
           d="m 112.12887,114.7047 -11.21044,1.73255 v 3.16812 l -8.710378,1.34616 v 3.1638 l -9.289604,1.43568 v 3.187 l 20.957612,-3.86929 8.25281,-3.80888 z"
           sodipodi:nodetypes="cccccccccc" />
        <path
           id="rect2-02-6"
           style="fill:#f2f2f2;stroke-width:0.475197;stroke-linecap:square;paint-order:markers stroke fill"
           d="m 54.623811,114.55806 -12.139996,1.87919 h 58.434615 l 12.14,-1.87919 z m 3.429374,2.63511 -24.279992,3.75836 h 58.434619 2.4e-4 l 8.710378,-1.34833 v -2.41003 z m -9.289362,4.59948 -24.279992,3.75836 h 58.434617 l 9.289604,-1.438 v -2.32036 z" />
        <path
           id="rect1-4-0"
           style="fill:#b3b3b3;stroke-width:0.672112;stroke-linecap:square;paint-order:markers stroke fill"
           d="m 42.483815,116.43725 v 3.187 h 58.434855 v -3.187 z m -8.710622,4.51428 v 3.18702 h 58.434859 v -3.18702 z m -9.289362,4.59948 v 3.187 h 58.434617 v -3.187 z" />
        <path
           id="rect2-0-2-1"
           style="fill:#f2f2f2;stroke-width:0.475197;stroke-linecap:square;paint-order:markers stroke fill"
           d="m 82.918448,128.80038 12.140014,1.87919 H 36.623829 L 24.48383,128.80038 Z m -3.42937,2.63511 24.279992,3.75837 h -58.434623 -2.38e-4 l -8.71038,-1.34834 v -2.41003 z m 9.289364,4.59948 24.279988,3.75836 H 54.623812 l -9.289603,-1.438 v -2.32036 z" />
        <path
           id="rect1-9-0-4"
           style="fill:#b3b3b3;stroke-width:0.672112;stroke-linecap:square;paint-order:markers stroke fill"
           d="m 95.058462,130.67957 v 3.187 H 36.623591 v -3.187 z m 8.710608,4.51429 v 3.187 H 45.334209 v -3.187 z m 9.28936,4.59947 v 3.187 H 54.623812 v -3.187 z" />
      </g>
    </g>
  </g>
</svg>
