<?xml version="1.0" encoding="UTF-8" standalone="no"?>
<!-- Created with Inkscape (http://www.inkscape.org/) -->

<svg
   width="54.169998mm"
   height="215.93201mm"
   viewBox="0 0 54.169998 215.93201"
   version="1.1"
   id="svg1"
   inkscape:version="1.3 (0e150ed6c4, 2023-07-21)"
   sodipodi:docname="torch3.svg"
   xmlns:inkscape="http://www.inkscape.org/namespaces/inkscape"
   xmlns:sodipodi="http://sodipodi.sourceforge.net/DTD/sodipodi-0.dtd"
   xmlns="http://www.w3.org/2000/svg"
   xmlns:svg="http://www.w3.org/2000/svg">
  <sodipodi:namedview
     id="namedview1"
     pagecolor="#ffffff"
     bordercolor="#666666"
     borderopacity="1.0"
     inkscape:showpageshadow="2"
     inkscape:pageopacity="0.0"
     inkscape:pagecheckerboard="0"
     inkscape:deskcolor="#d1d1d1"
     inkscape:document-units="mm"
     inkscape:zoom="1.0015858"
     inkscape:cx="123.30446"
     inkscape:cy="249.10497"
     inkscape:window-width="1920"
     inkscape:window-height="991"
     inkscape:window-x="-9"
     inkscape:window-y="-9"
     inkscape:window-maximized="1"
     inkscape:current-layer="layer1" />
  <defs
     id="defs1" />
  <g
     inkscape:label="Layer 1"
     inkscape:groupmode="layer"
     id="layer1">
    <path
       id="rect1"
       style="fill:#483e37;stroke-width:0.524487;stroke-linecap:square;paint-order:markers stroke fill"
       d="M 0.8891983,86.29812 H 52.817496 l 0.46331,32.84618 -13.91237,97.53495 H 13.96467 L 1.2304483,116.89785 Z"
       sodipodi:nodetypes="ccccccc" />
    <path
       id="path1"
       style="fill:#fb861b;fill-opacity:1;stroke-width:0.624001;stroke-linecap:square;paint-order:markers stroke fill"
       d="M 22.366594,0.74724121 A 27.084906,39.786797 0 0 1 31.132984,2.9786296 15.057372,17.434851 0 0 0 27.525969,14.296802 15.057372,17.434851 0 0 0 42.583447,31.731913 15.057372,17.434851 0 0 0 48.535539,30.28704 27.084906,39.786797 0 0 1 49.451762,40.53396 27.084906,39.786797 0 0 1 22.366594,80.320679 27.084906,39.786797 0 0 1 1.781804,66.266756 19.680248,24.162407 0 0 0 19.678902,42.260986 19.680248,24.162407 0 0 0 0,18.09812 27.084906,39.786797 0 0 1 22.366594,0.74724121 Z" />
    <ellipse
       style="fill:#fbf71b;fill-opacity:1;stroke-width:0.293877;stroke-linecap:square;paint-order:markers stroke fill"
       id="path1-6"
       cx="27.084999"
       cy="59.014961"
       rx="12.933111"
       ry="18.480995" />
  </g>
</svg>
