<?xml version="1.0" encoding="UTF-8" standalone="no"?>
<svg
   version="1.1"
   width="256"
   height="256"
   viewBox="0 0 256 256"
   xml:space="preserve"
   id="svg2"
   sodipodi:docname="tree0.svg"
   inkscape:version="1.3 (0e150ed6c4, 2023-07-21)"
   xmlns:inkscape="http://www.inkscape.org/namespaces/inkscape"
   xmlns:sodipodi="http://sodipodi.sourceforge.net/DTD/sodipodi-0.dtd"
   xmlns:xlink="http://www.w3.org/1999/xlink"
   xmlns="http://www.w3.org/2000/svg"
   xmlns:svg="http://www.w3.org/2000/svg"><sodipodi:namedview
   id="namedview2"
   pagecolor="#ffffff"
   bordercolor="#666666"
   borderopacity="1.0"
   inkscape:showpageshadow="2"
   inkscape:pageopacity="0.0"
   inkscape:pagecheckerboard="0"
   inkscape:deskcolor="#d1d1d1"
   inkscape:zoom="6.2109376"
   inkscape:cx="139.83396"
   inkscape:cy="121.96226"
   inkscape:window-width="1920"
   inkscape:window-height="991"
   inkscape:window-x="-9"
   inkscape:window-y="-9"
   inkscape:window-maximized="1"
   inkscape:current-layer="g2" />&#10;&#10;<defs
   id="defs1"><linearGradient
   id="linearGradient3"
   inkscape:collect="always"><stop
     style="stop-color:#911010;stop-opacity:1;"
     offset="0"
     id="stop4" /><stop
     style="stop-color:#b46733;stop-opacity:1;"
     offset="1"
     id="stop3" /></linearGradient>&#10;<linearGradient
   inkscape:collect="always"
   xlink:href="#linearGradient3"
   id="linearGradient4"
   x1="40.215252"
   y1="25.741121"
   x2="40.863873"
   y2="39.58897"
   gradientUnits="userSpaceOnUse"
   spreadMethod="pad" /></defs>&#10;<g
   style="stroke: none; stroke-width: 0; stroke-dasharray: none; stroke-linecap: butt; stroke-linejoin: miter; stroke-miterlimit: 10; fill: none; fill-rule: nonzero; opacity: 1;"
   transform="translate(1.4065934065934016 1.4065934065934016) scale(2.81 2.81)"
   id="g2">&#10;	<path
   d="m 26.112819,90.602636 h 5.076291 l 5.723524,-3.004957 1.166082,0.09742 -1.589505,2.907533 h 13.340476 l -0.33409,-3.727429 2.357799,0.204731 1.487704,3.522698 h 3.524161 C 53.177261,84.117229 50.9,73.442225 50.876,63.396271 v 0 c -0.52946,-13.4454 6.645463,-24.367382 7.607463,-37.732639 l -2.278,-0.362746 C 55.784463,31.832076 50.457,37.981151 49.177,43.18286 47.244,34.924223 50.079463,30.421593 49.931463,20.879257 h -1.608 c -0.749,7.686344 -3.631701,22.390761 -1.745701,30.876554 C 43.646762,44.54139 37.464691,32.263088 34.191691,29.24666 L 26.033,32.051124 c 3.266601,4.16828 11.032603,15.526673 13.535351,25.751863 0.207579,0.848083 -0.390822,1.540003 -0.02392,3.244761 0.305792,1.42084 0.504865,2.756676 0.463515,4.128862 -5.19e-4,7.171515 1.538372,12.581629 -2.372551,16.774614 -3.656189,3.91988 -9.370061,4.770004 -11.522576,8.651412 z"
   style="opacity:1;fill:url(#linearGradient4);fill-rule:nonzero;stroke:none;stroke-width:1.32699;stroke-linecap:butt;stroke-linejoin:miter;stroke-miterlimit:10;stroke-dasharray:none"
   stroke-linecap="round"
   id="path1"
   sodipodi:nodetypes="ccccccccccscccccccccsscsc" />&#10;	<path
   d="m 82.623368,16.832546 c 0,-1.682786 -2.095,-3.094403 -4.936,-3.507172 0.003,-0.0421 0.012,-0.08365 0.012,-0.125744 0,-2.006442 -2.975,-3.6334633 -6.646,-3.6334633 -0.605,0 -1.189,0.04811 -1.746,0.131211 -0.25,-1.88179 -3.115,-3.36776 -6.621,-3.36776 -0.939,0 -1.831,0.107703 -2.641,0.2996 -0.419,-1.786116 -3.204,-3.168209 -6.585,-3.168209 -1.575,0 -3.02,0.301239 -4.159,0.801483 -1.082,-1.333983 -3.508,-2.269958 -6.35,-2.269958 -2.863,0 -5.322,0.945269 -6.392,2.295653 -0.189,-0.0082 -0.379,-0.01367 -0.571,-0.01367 -2.287,0 -4.316,0.602479 -5.585,1.532987 -1.173,-0.492043 -2.64,-0.785082 -4.233,-0.785082 -3.846,0 -6.963,1.704655 -6.963,3.806772 -3.846,0 -6.963,1.7046553 -6.963,3.8067713 0,0.464161 0.152,0.908639 0.431,1.319769 -3.7180002,0.260236 -6.5920002,1.995507 -6.5920002,4.098716 0,1.248696 1.014,2.367273 2.615,3.125019 -0.843,0.666445 -1.337,1.475035 -1.337,2.346498 0,0.470174 0.146,0.92176 0.411,1.343277 -1.18,0.729317 -1.898,1.68716 -1.898,2.737398 0,2.283079 3.385,4.133707 7.5610002,4.133707 1.692,0 3.254,-0.303973 4.514,-0.817338 0.826,1.793223 3.795,3.120645 7.331,3.120645 1.967,0 3.758,-0.411129 5.103,-1.084135 1.231,1.074841 3.415,1.789943 5.905,1.789943 3.846,0 6.963,-1.704655 6.963,-3.806771 0,-0.03335 -0.003,-0.06615 -0.005,-0.0995 0.978,0.276637 2.087,0.433544 3.264,0.433544 1.579,0 3.038,-0.281558 4.219,-0.757199 0.995,1.848987 4.121,3.198825 7.825,3.198825 2.239,0 4.266,-0.493136 5.741,-1.291886 1.015,0.247662 2.138,0.386527 3.321,0.386527 4.506,0 8.158,-1.9966 8.158,-4.460095 0,-0.687766 -0.285,-1.338903 -0.793,-1.92006 3.278,-0.578424 5.649,-2.259571 5.649,-4.244143 0,-0.831006 -0.423,-1.606247 -1.148,-2.272691 1.882,-0.641296 3.141,-1.780649 3.141,-3.083469 z"
   style="opacity:1;fill:#569441;fill-rule:nonzero;stroke:none;stroke-width:0.739401;stroke-linecap:butt;stroke-linejoin:miter;stroke-miterlimit:10;stroke-dasharray:none"
   stroke-linecap="round"
   id="path2" />&#10;<ellipse
   style="fill:#ffb380;stroke-width:4.75603;stroke-linecap:round;stroke-linejoin:round;paint-order:markers stroke fill"
   id="path3"
   cx="42.254025"
   cy="60.280678"
   rx="1.9948432"
   ry="1.9711591" /><path
   style="fill:none;stroke:#b46733;stroke-width:0.854093;stroke-linecap:butt;stroke-linejoin:miter;stroke-dasharray:none;stroke-opacity:1"
   d="m 48.328175,53.537569 6.231715,-3.484338 4.902506,-7.211765 8.472932,-10.04785"
   id="path8" /><path
   style="fill:none;stroke:#b46733;stroke-width:0.711744;stroke-linecap:butt;stroke-linejoin:miter;stroke-dasharray:none;stroke-opacity:1"
   d="M 37.095472,44.486456 22.073009,38.984677 19.619793,34.13064 16.91134,33.570541"
   id="path9" /><ellipse
   style="fill:#569441;fill-opacity:1;stroke:none;stroke-width:0.949826;stroke-linecap:round;stroke-linejoin:round;stroke-dasharray:none;stroke-opacity:1;paint-order:markers stroke fill"
   id="path10"
   cx="9.1548977"
   cy="43.541481"
   rx="1.3884666"
   ry="0.62068564"
   transform="rotate(-15.906512)" /><ellipse
   style="fill:#569441;fill-opacity:1;fill-rule:nonzero;stroke:none;stroke-width:0.962241;stroke-linecap:round;stroke-linejoin:round;stroke-miterlimit:10;stroke-dasharray:none;stroke-opacity:1;paint-order:markers stroke fill"
   id="path10-0"
   cx="70.485695"
   cy="44.540699"
   rx="1.3921545"
   ry="0.6353299"
   transform="matrix(0.99993387,-0.01150048,-0.21376481,0.97688516,0,0)" /><path
   style="fill:none;stroke:#b46733;stroke-width:0.996441;stroke-linecap:butt;stroke-linejoin:miter;stroke-dasharray:none;stroke-opacity:1"
   d="m 39.325273,39.52788 2.457694,-7.435591 3.409493,-3.472727 2.791333,-4.794455"
   id="path11" /><path
   style="fill:none;stroke:#b46733;stroke-width:0.533808;stroke-linecap:butt;stroke-linejoin:miter;stroke-dasharray:none;stroke-opacity:1"
   d="m 35.61984,38.138834 -1.496192,-6.520189 3.089506,-6.728388 0.277805,-6.482486"
   id="path12" /><path
   style="fill:none;stroke:#b46733;stroke-width:0.533808;stroke-linecap:butt;stroke-linejoin:miter;stroke-dasharray:none;stroke-opacity:1"
   d="M 31.670295,36.113058 30.361672,30.95938 25.208309,25.214381 v 0"
   id="path13" /><path
   style="fill:none;stroke:#b46733;stroke-width:0.355872px;stroke-linecap:butt;stroke-linejoin:miter;stroke-opacity:1"
   d="m 50.395065,41.027788 5.718288,-6.417332 5.219073,-9.224916"
   id="path4" /><path
   style="fill:none;stroke:#b46733;stroke-width:0.355872px;stroke-linecap:butt;stroke-linejoin:miter;stroke-opacity:1"
   d="m 46.145617,35.596503 4.838568,-7.292041 1.294601,-4.40866"
   id="path5" /><path
   style="fill:none;stroke:#a33e22;stroke-width:0.355872px;stroke-linecap:butt;stroke-linejoin:miter;stroke-opacity:1"
   d="m 50.34654,49.950871 c -1.458676,11.780417 -1.162633,10.329808 -1.162633,10.329808 l 0.554783,9.594232 2.633509,13.41064"
   id="path6" /><path
   style="fill:none;stroke:#a33c22;stroke-width:0.355872px;stroke-linecap:butt;stroke-linejoin:miter;stroke-opacity:1"
   d="m 39.870469,62.853238 2.383555,0.782281 2.217648,-0.364641"
   id="path7" /><path
   style="fill:none;stroke:#9e301d;stroke-width:0.355872px;stroke-linecap:butt;stroke-linejoin:miter;stroke-opacity:1"
   d="m 46.169651,49.784124 1.581526,-6.050933 -1.726082,-8.124274"
   id="path14" /></g>&#10;</svg>
