<?xml version="1.0" encoding="UTF-8" standalone="no"?>
<svg
   version="1.1"
   width="256"
   height="256"
   viewBox="0 0 256 256"
   xml:space="preserve"
   id="svg2"
   sodipodi:docname="tree3.svg"
   inkscape:version="1.3 (0e150ed6c4, 2023-07-21)"
   xmlns:inkscape="http://www.inkscape.org/namespaces/inkscape"
   xmlns:sodipodi="http://sodipodi.sourceforge.net/DTD/sodipodi-0.dtd"
   xmlns:xlink="http://www.w3.org/1999/xlink"
   xmlns="http://www.w3.org/2000/svg"
   xmlns:svg="http://www.w3.org/2000/svg"><sodipodi:namedview
   id="namedview2"
   pagecolor="#ffffff"
   bordercolor="#666666"
   borderopacity="1.0"
   inkscape:showpageshadow="2"
   inkscape:pageopacity="0.0"
   inkscape:pagecheckerboard="0"
   inkscape:deskcolor="#d1d1d1"
   inkscape:zoom="2.195898"
   inkscape:cx="18.44348"
   inkscape:cy="125.00581"
   inkscape:window-width="1920"
   inkscape:window-height="991"
   inkscape:window-x="-9"
   inkscape:window-y="-9"
   inkscape:window-maximized="1"
   inkscape:current-layer="g2" />&#10;&#10;<defs
   id="defs1"><linearGradient
   id="linearGradient3"
   inkscape:collect="always"><stop
     style="stop-color:#911010;stop-opacity:1;"
     offset="0"
     id="stop4" /><stop
     style="stop-color:#b46733;stop-opacity:1;"
     offset="1"
     id="stop3" /></linearGradient>&#10;<linearGradient
   inkscape:collect="always"
   xlink:href="#linearGradient3"
   id="linearGradient4"
   x1="40.215252"
   y1="25.741121"
   x2="40.863873"
   y2="39.58897"
   gradientUnits="userSpaceOnUse"
   spreadMethod="pad" /></defs>&#10;<g
   style="stroke: none; stroke-width: 0; stroke-dasharray: none; stroke-linecap: butt; stroke-linejoin: miter; stroke-miterlimit: 10; fill: none; fill-rule: nonzero; opacity: 1;"
   transform="translate(1.4065934065934016 1.4065934065934016) scale(2.81 2.81)"
   id="g2">&#10;	<path
   d="m 26.112819,90.602636 h 5.076291 l 5.723524,-3.004957 1.166082,0.09742 -1.589505,2.907533 h 13.340476 l -0.33409,-3.727429 2.357799,0.204731 1.487704,3.522698 h 3.524161 C 53.177261,84.117229 50.9,73.442225 50.876,63.396271 v 0 C 51.099,52.040204 53.251,39.028889 54.213,25.663632 L 51.935,25.300886 C 51.514,31.832076 50.457,37.981151 49.177,43.18286 47.244,34.924223 45.809,30.421593 45.661,20.879257 h -1.608 c -0.749,7.686344 0.638762,22.390761 2.524762,30.876554 C 43.646762,44.54139 37.464691,32.263088 34.191691,29.24666 L 26.033,32.051124 c 3.266601,4.16828 11.032603,15.526673 13.535351,25.751863 0.207579,0.848083 -0.390822,1.540003 -0.02392,3.244761 0.305792,1.42084 0.504865,2.756676 0.463515,4.128862 -5.19e-4,7.171515 1.538372,12.581629 -2.372551,16.774614 -3.656189,3.91988 -9.370061,4.770004 -11.522576,8.651412 z"
   style="opacity:1;fill:url(#linearGradient4);fill-rule:nonzero;stroke:none;stroke-width:1.32699;stroke-linecap:butt;stroke-linejoin:miter;stroke-miterlimit:10;stroke-dasharray:none"
   stroke-linecap="round"
   id="path1"
   sodipodi:nodetypes="ccccccccccssccccccccsscsc" />&#10;	<path
   d="m 77.777193,14.741416 c -0.05548,-1.681871 -2.195878,-3.023652 -5.048942,-3.342534 0.0016,-0.04218 0.0092,-0.084 0.0078,-0.126072 C 72.66995,9.2674597 69.642927,7.7394032 65.973923,7.8604295 65.369252,7.8803752 64.787155,7.9477135 64.233198,8.0491321 63.921294,6.1766066 61.008862,4.7858989 57.504768,4.9014854 56.566278,4.9324425 55.678314,5.0694943 54.875081,5.2879909 54.397423,3.51666 51.568372,2.227134 48.18921,2.3385995 46.615066,2.3905244 45.180783,2.7392393 44.058894,3.2767617 42.933504,1.9791756 40.477965,1.1236904 37.63751,1.217386 34.776066,1.311774 32.349567,2.3375979 31.324668,3.722524 31.1355,3.720564 30.945423,3.721354 30.753528,3.727684 28.467771,3.803082 26.459737,4.4721264 25.222104,5.443965 24.03352,4.9908655 22.557656,4.7463504 20.965522,4.7988687 17.121613,4.9256644 14.062506,6.7321546 14.131809,8.8331283 10.2879,8.959924 7.2287939,10.766414 7.2980969,12.867387 c 0.015303,0.463909 0.1818736,0.903134 0.4742761,1.304842 -3.7073994,0.382671 -6.5226283,2.211749 -6.4532893,4.313815 0.041167,1.248017 1.0914935,2.332556 2.7166047,3.037108 -0.8205702,0.693875 -1.2876439,1.518312 -1.2589134,2.389301 0.015501,0.469919 0.1763094,0.916446 0.455062,1.328997 -1.1553143,0.767823 -1.8413456,1.748816 -1.8067211,2.798484 0.075269,2.281837 3.5194407,4.019862 7.6931707,3.882187 1.6910804,-0.05578 3.2422094,-0.411086 4.4846004,-0.965712 0.88467,1.765016 3.895819,2.993834 7.429897,2.877259 1.96593,-0.06485 3.742402,-0.5348 5.064484,-1.251783 1.265766,1.033673 3.472154,1.676384 5.960801,1.594293 3.843909,-0.126796 6.903015,-1.933286 6.833712,-4.034259 -0.0011,-0.03333 -0.0052,-0.06602 -0.0083,-0.09928 0.986588,0.244243 2.100158,0.364503 3.276519,0.3257 1.578141,-0.05206 3.027066,-0.381562 4.191743,-0.89588 1.055417,1.815178 4.224219,3.061224 7.926205,2.93911 2.237783,-0.07382 4.247424,-0.633511 5.695289,-1.480454 1.022613,0.214064 2.14958,0.31583 3.331937,0.276829 4.503551,-0.148555 8.087741,-2.264469 8.006524,-4.726625 -0.02267,-0.687392 -0.328986,-1.328779 -0.855869,-1.892873 3.257148,-0.686179 5.571435,-2.44458 5.506007,-4.428073 -0.0274,-0.830554 -0.475725,-1.591428 -1.222302,-2.233608 1.859834,-0.702993 3.080587,-1.883234 3.037636,-3.185346 z"
   style="opacity:1;fill:#569441;fill-rule:nonzero;stroke:none;stroke-width:0.739401;stroke-linecap:butt;stroke-linejoin:miter;stroke-miterlimit:10;stroke-dasharray:none"
   stroke-linecap="round"
   id="path2" />&#10;<ellipse
   style="fill:#ffb380;stroke-width:4.75603;stroke-linecap:round;stroke-linejoin:round;paint-order:markers stroke fill"
   id="path3"
   cx="42.254025"
   cy="60.280678"
   rx="1.9948432"
   ry="1.9711591" /><path
   style="fill:none;stroke:#b46733;stroke-width:0.854093;stroke-linecap:butt;stroke-linejoin:miter;stroke-dasharray:none;stroke-opacity:1"
   d="M 47.991077,50.549003 53.420159,47.064665 56.661401,39.8529 62.819764,29.80505"
   id="path8" /><path
   style="fill:none;stroke:#b46733;stroke-width:0.711744;stroke-linecap:butt;stroke-linejoin:miter;stroke-dasharray:none;stroke-opacity:1"
   d="M 38.23228,45.183416 22.674316,41.455985 19.676167,36.918249 16.921111,36.675156"
   id="path9" /><ellipse
   style="fill:#569441;fill-opacity:1;stroke:none;stroke-width:0.949826;stroke-linecap:round;stroke-linejoin:round;stroke-dasharray:none;stroke-opacity:1;paint-order:markers stroke fill"
   id="path10"
   cx="3.6560447"
   cy="46.981659"
   rx="1.3884666"
   ry="0.62068564"
   transform="rotate(-22.547938)" /><ellipse
   style="fill:#569441;fill-opacity:1;fill-rule:nonzero;stroke:none;stroke-width:0.949826;stroke-linecap:round;stroke-linejoin:round;stroke-miterlimit:10;stroke-dasharray:none;stroke-opacity:1;paint-order:markers stroke fill"
   id="path10-0"
   cx="57.664562"
   cy="40.379581"
   rx="1.3884666"
   ry="0.62068564"
   transform="rotate(-0.66069392)" /><path
   style="fill:none;stroke:#b46733;stroke-width:0.996441;stroke-linecap:butt;stroke-linejoin:miter;stroke-dasharray:none;stroke-opacity:1"
   d="m 40.110362,39.540294 0.744871,-7.435591 2.609534,-3.472727 1.686908,-4.794455"
   id="path11" /><path
   style="fill:none;stroke:#b46733;stroke-width:0.533808;stroke-linecap:butt;stroke-linejoin:miter;stroke-dasharray:none;stroke-opacity:1"
   d="m 35.373212,38.862992 -2.998148,-6.520189 1.53959,-6.728388 -1.215466,-6.482486"
   id="path12" /><path
   style="fill:none;stroke:#b46733;stroke-width:0.533808;stroke-linecap:butt;stroke-linejoin:miter;stroke-dasharray:none;stroke-opacity:1"
   d="m 30.95702,36.837216 -2.495797,-5.153678 -6.47675,-5.744999 v 0"
   id="path13" /><path
   style="fill:none;stroke:#b46733;stroke-width:0.355872px;stroke-linecap:butt;stroke-linejoin:miter;stroke-opacity:1"
   d="m 50.813921,41.751946 4.240025,-6.417332 3.094071,-9.224916"
   id="path4" /><path
   style="fill:none;stroke:#b46733;stroke-width:0.355872px;stroke-linecap:butt;stroke-linejoin:miter;stroke-opacity:1"
   d="m 45.313351,36.320661 3.158812,-7.292041 0.279046,-4.40866"
   id="path5" /><path
   style="fill:none;stroke:#a33e22;stroke-width:0.355872px;stroke-linecap:butt;stroke-linejoin:miter;stroke-opacity:1"
   d="m 50.34654,49.950871 c -1.458676,11.780417 -1.162633,10.329808 -1.162633,10.329808 l 0.554783,9.594232 2.633509,13.41064"
   id="path6" /><path
   style="fill:none;stroke:#a33c22;stroke-width:0.355872px;stroke-linecap:butt;stroke-linejoin:miter;stroke-opacity:1"
   d="m 39.870469,62.853238 2.383555,0.782281 2.217648,-0.364641"
   id="path7" /><path
   style="fill:none;stroke:#9e301d;stroke-width:0.355872px;stroke-linecap:butt;stroke-linejoin:miter;stroke-opacity:1"
   d="m 46.169651,49.784124 1.581526,-6.050933 -1.726082,-8.124274"
   id="path14" /></g>&#10;</svg>
