<?xml version="1.0" encoding="UTF-8" standalone="no"?>
<!-- Created with Inkscape (http://www.inkscape.org/) -->

<svg
   width="276.98801mm"
   height="271.04099mm"
   viewBox="0 0 276.98801 271.04099"
   version="1.1"
   id="svg1"
   xml:space="preserve"
   inkscape:version="1.3 (0e150ed6c4, 2023-07-21)"
   sodipodi:docname="wall.svg"
   xmlns:inkscape="http://www.inkscape.org/namespaces/inkscape"
   xmlns:sodipodi="http://sodipodi.sourceforge.net/DTD/sodipodi-0.dtd"
   xmlns="http://www.w3.org/2000/svg"
   xmlns:svg="http://www.w3.org/2000/svg"><sodipodi:namedview
     id="namedview1"
     pagecolor="#ffffff"
     bordercolor="#666666"
     borderopacity="1.0"
     inkscape:showpageshadow="2"
     inkscape:pageopacity="0.0"
     inkscape:pagecheckerboard="0"
     inkscape:deskcolor="#d1d1d1"
     inkscape:document-units="mm"
     inkscape:zoom="0.70822813"
     inkscape:cx="555.61194"
     inkscape:cy="547.14009"
     inkscape:window-width="1920"
     inkscape:window-height="991"
     inkscape:window-x="-9"
     inkscape:window-y="-9"
     inkscape:window-maximized="1"
     inkscape:current-layer="layer1" /><defs
     id="defs1" /><g
     inkscape:label="Layer 1"
     inkscape:groupmode="layer"
     id="layer1"><rect
       style="fill:#1a1a1a;stroke:#000000;stroke-width:1.70842;stroke-linecap:square;stroke-dasharray:none;stroke-opacity:1;paint-order:markers stroke fill"
       id="rect1"
       width="261.97849"
       height="266.16904"
       x="7.5047622"
       y="-0.022478459" /><path
       style="fill:#9e9aa3;fill-opacity:1;stroke:#000000;stroke-width:1.74315;stroke-linecap:square;stroke-dasharray:none;stroke-opacity:1;paint-order:markers stroke fill"
       d="m 198.7636,212.9601 c -2.39356,0 -4.32067,1.92659 -4.32067,4.32015 v 17.51004 c 0,2.39355 1.92711,4.32067 4.32067,4.32067 h 42.54004 c 2.39353,0 4.32066,-1.92712 4.32066,-4.32067 v -17.51004 c 0,-2.39356 -1.92713,-4.32015 -4.32066,-4.32015 z"
       id="path103" /><path
       style="fill:#b3b3b3;stroke:#000000;stroke-width:1.74315;stroke-linecap:square;stroke-dasharray:none;stroke-opacity:1;paint-order:markers stroke fill"
       d="m 143.53803,212.9601 c -2.39356,0 -4.32067,1.92659 -4.32067,4.32015 v 17.51004 c 0,2.39355 1.92711,4.32067 4.32067,4.32067 h 42.54004 c 2.39355,0 4.32015,-1.92712 4.32015,-4.32067 v -17.51004 c 0,-2.39356 -1.9266,-4.32015 -4.32015,-4.32015 z"
       id="path102" /><path
       style="fill:#b3b3b3;stroke:#000000;stroke-width:1.74315;stroke-linecap:square;stroke-dasharray:none;stroke-opacity:1;paint-order:markers stroke fill"
       d="m 88.311924,212.9601 c -2.393548,0 -4.320666,1.92713 -4.320666,4.32066 v 17.51005 c 0,2.39353 1.927118,4.32015 4.320666,4.32015 h 42.540056 c 2.39356,0 4.32067,-1.92662 4.32067,-4.32015 v -17.51005 c 0,-2.39353 -1.92711,-4.32066 -4.32067,-4.32066 z"
       id="path99" /><path
       style="fill:#b3b3b3;stroke:#000000;stroke-width:1.74315;stroke-linecap:square;stroke-dasharray:none;stroke-opacity:1;paint-order:markers stroke fill"
       d="m 33.085838,212.9601 c -2.39355,0 -4.32015,1.92713 -4.32015,4.32066 v 17.51005 c 0,2.39353 1.9266,4.32015 4.32015,4.32015 h 42.540556 c 2.393547,0 4.320149,-1.92662 4.320149,-4.32015 v -17.51005 c 0,-2.39353 -1.926602,-4.32066 -4.320149,-4.32066 z"
       id="path98" /><path
       style="fill:#b3b3b3;stroke:#000000;stroke-width:1.74315;stroke-linecap:square;stroke-dasharray:none;stroke-opacity:1;paint-order:markers stroke fill"
       d="m 228.399,183.6433 c -2.39356,0 -4.32067,1.92713 -4.32067,4.32066 v 17.51005 c 0,2.39353 1.92711,4.32015 4.32067,4.32015 h 13.31144 l 4.78544,-7.66077 2.08284,7.66077 h 22.36032 c 2.39355,0 4.32066,-1.92662 4.32066,-4.32015 v -17.51005 c 0,-2.39353 -1.92711,-4.32066 -4.32066,-4.32066 z"
       id="path97"
       sodipodi:nodetypes="sssscccsssss" /><path
       style="fill:#cccccc;stroke:#000000;stroke-width:1.74315;stroke-linecap:square;stroke-dasharray:none;stroke-opacity:1;paint-order:markers stroke fill"
       d="m 173.17291,183.6433 c -2.39355,0 -4.32015,1.92713 -4.32015,4.32066 v 17.51005 c 0,2.39353 1.9266,4.32015 4.32015,4.32015 h 42.54056 c 2.39355,0 4.32015,-1.92662 4.32015,-4.32015 v -17.51005 c 0,-2.39353 -1.9266,-4.32066 -4.32015,-4.32066 z"
       id="path96" /><path
       style="fill:#b3b3b3;stroke:#000000;stroke-width:1.74315;stroke-linecap:square;stroke-dasharray:none;stroke-opacity:1;paint-order:markers stroke fill"
       d="m 117.94734,183.6433 c -2.39355,0 -4.32066,1.92713 -4.32066,4.32066 v 17.51005 c 0,2.39353 1.92711,4.32015 4.32066,4.32015 h 42.54004 c 2.39356,0 4.32067,-1.92662 4.32067,-4.32015 v -17.51005 c 0,-2.39353 -1.92711,-4.32066 -4.32067,-4.32066 h -16.09727 l -2.14811,3.08208 -2.33491,-3.08208 z"
       id="path95"
       sodipodi:nodetypes="sssssssscccs" /><path
       style="fill:#b3b3b3;stroke:#000000;stroke-width:1.74315;stroke-linecap:square;stroke-dasharray:none;stroke-opacity:1;paint-order:markers stroke fill"
       d="m 62.721238,183.6433 c -2.393548,0 -4.32015,1.92662 -4.32015,4.32015 v 17.51005 c 0,2.39353 1.926602,4.32066 4.32015,4.32066 H 105.2613 c 2.39353,0 4.32066,-1.92713 4.32066,-4.32066 v -17.51005 c 0,-2.39353 -1.92713,-4.32015 -4.32066,-4.32015 z"
       id="path94" /><path
       style="fill:#cccccc;fill-opacity:1;stroke:#000000;stroke-width:1.74315;stroke-linecap:square;stroke-dasharray:none;stroke-opacity:1;paint-order:markers stroke fill"
       d="m 5.9081666,183.6433 c -2.393549,0 -4.3206666,1.92662 -4.3206666,4.32015 v 17.51005 c 0,2.39353 1.9271176,4.32066 4.3206666,4.32066 H 48.448207 c 2.393547,0 4.320666,-1.92713 4.320666,-4.32066 v -17.51005 c 0,-2.39353 -1.927119,-4.32015 -4.320666,-4.32015 H 28.299291 l -2.739767,1.86848 -0.766319,5.79247 -1.693128,-3.5196 0.155818,-4.14135 z"
       id="path93"
       sodipodi:nodetypes="sssssssscccccs" /><path
       style="fill:#b3b3b3;stroke:#000000;stroke-width:1.74315;stroke-linecap:square;stroke-dasharray:none;stroke-opacity:1;paint-order:markers stroke fill"
       d="m 228.39874,242.27691 c -2.39356,0 -4.32067,1.92713 -4.32067,4.32066 v 17.51005 c 0,2.39353 1.92711,4.32015 4.32067,4.32015 h 42.54004 c 2.39355,0 4.32066,-1.92662 4.32066,-4.32015 v -17.51005 c 0,-2.39353 -1.92711,-4.32066 -4.32066,-4.32066 z"
       id="path97-9" /><path
       style="fill:#b3b3b3;stroke:#000000;stroke-width:1.74315;stroke-linecap:square;stroke-dasharray:none;stroke-opacity:1;paint-order:markers stroke fill"
       d="m 173.17265,242.27691 c -2.39355,0 -4.32015,1.92713 -4.32015,4.32066 v 17.51005 c 0,2.39353 1.9266,4.32015 4.32015,4.32015 h 42.54056 c 2.39355,0 4.32015,-1.92662 4.32015,-4.32015 v -17.51005 c 0,-2.39353 -1.9266,-4.32066 -4.32015,-4.32066 z"
       id="path96-4" /><path
       style="fill:#b3b3b3;stroke:#000000;stroke-width:1.74315;stroke-linecap:square;stroke-dasharray:none;stroke-opacity:1;paint-order:markers stroke fill"
       d="m 117.94708,242.27691 c -2.39355,0 -4.32066,1.92713 -4.32066,4.32066 v 17.51005 c 0,2.39353 1.92711,4.32015 4.32066,4.32015 h 42.54004 c 2.39356,0 4.32067,-1.92662 4.32067,-4.32015 v -17.51005 c 0,-2.39353 -1.92711,-4.32066 -4.32067,-4.32066 z"
       id="path95-9" /><path
       style="fill:#cccccc;stroke:#000000;stroke-width:1.74315;stroke-linecap:square;stroke-dasharray:none;stroke-opacity:1;paint-order:markers stroke fill"
       d="m 62.720983,242.27691 c -2.39355,0 -4.32015,1.92662 -4.32015,4.32015 v 17.51005 c 0,2.39353 1.9266,4.32066 4.32015,4.32066 h 42.540057 c 2.39353,0 4.32066,-1.92713 4.32066,-4.32066 v -17.51005 c 0,-2.39353 -1.92713,-4.32015 -4.32066,-4.32015 z"
       id="path94-6" /><path
       style="fill:#a6a0a0;fill-opacity:1;stroke:#000000;stroke-width:1.74315;stroke-linecap:square;stroke-dasharray:none;stroke-opacity:1;paint-order:markers stroke fill"
       d="m 5.9079111,242.27691 c -2.39355,0 -4.3206701,1.92662 -4.3206701,4.32015 v 17.51005 c 0,2.39353 1.9271201,4.32066 4.3206701,4.32066 H 48.447952 c 2.39354,0 4.32066,-1.92713 4.32066,-4.32066 v -17.51005 c 0,-2.39353 -1.92712,-4.32015 -4.32066,-4.32015 z"
       id="path93-7" /><path
       style="fill:#b3b3b3;stroke:#000000;stroke-width:1.74315;stroke-linecap:square;stroke-dasharray:none;stroke-opacity:1;paint-order:markers stroke fill"
       d="m 198.7636,153.23998 c -2.39356,0 -4.32067,1.92663 -4.32067,4.32016 v 17.51005 c 0,2.39353 1.92711,4.32066 4.32067,4.32066 h 42.54004 c 2.39353,0 4.32066,-1.92713 4.32066,-4.32066 v -17.51005 c 0,-2.39353 -1.92713,-4.32016 -4.32066,-4.32016 z"
       id="path91" /><path
       style="fill:#b3b3b3;stroke:#000000;stroke-width:1.74315;stroke-linecap:square;stroke-dasharray:none;stroke-opacity:1;paint-order:markers stroke fill"
       d="m 143.53803,153.23998 c -2.39356,0 -4.32067,1.92663 -4.32067,4.32016 v 17.51005 c 0,2.39353 1.92711,4.32066 4.32067,4.32066 h 42.54004 c 2.39355,0 4.32015,-1.92713 4.32015,-4.32066 v -17.51005 c 0,-2.39353 -1.9266,-4.32016 -4.32015,-4.32016 z"
       id="path90" /><path
       style="fill:#cccccc;stroke:#000000;stroke-width:1.74315;stroke-linecap:square;stroke-dasharray:none;stroke-opacity:1;paint-order:markers stroke fill"
       d="m 88.311924,153.23998 c -2.393548,0 -4.320666,1.92663 -4.320666,4.32016 v 17.51005 c 0,2.39353 1.927118,4.32066 4.320666,4.32066 h 42.540056 c 2.39356,0 4.32067,-1.92713 4.32067,-4.32066 v -17.51005 c 0,-2.39353 -1.92711,-4.32016 -4.32067,-4.32016 z"
       id="path89" /><path
       style="fill:#9e9aa2;fill-opacity:1;stroke:#000000;stroke-width:1.74315;stroke-linecap:square;stroke-dasharray:none;stroke-opacity:1;paint-order:markers stroke fill"
       d="m 33.085838,153.23998 c -2.39355,0 -4.32015,1.92663 -4.32015,4.32016 v 17.51005 c 0,2.39353 1.9266,4.32066 4.32015,4.32066 h 42.540556 c 2.393547,0 4.320149,-1.92713 4.320149,-4.32066 v -17.51005 c 0,-2.39353 -1.926602,-4.32016 -4.320149,-4.32016 z"
       id="path88" /><path
       style="fill:#b3b3b3;stroke:#000000;stroke-width:1.74315;stroke-linecap:square;stroke-dasharray:none;stroke-opacity:1;paint-order:markers stroke fill"
       d="m 228.399,123.03434 c -2.39356,0 -4.32067,1.92712 -4.32067,4.32067 v 17.51004 c 0,2.39356 1.92711,4.32015 4.32067,4.32015 h 42.54004 c 2.39355,0 4.32066,-1.92659 4.32066,-4.32015 v -17.51004 c 0,-2.39355 -1.92711,-4.32067 -4.32066,-4.32067 z"
       id="path86" /><path
       style="fill:#b3b3b3;stroke:#000000;stroke-width:1.74315;stroke-linecap:square;stroke-dasharray:none;stroke-opacity:1;paint-order:markers stroke fill"
       d="m 228.25066,63.811096 c -2.39356,0 -4.32067,1.92712 -4.32067,4.32067 v 17.51004 c 0,2.39356 1.92711,4.32015 4.32067,4.32015 h 42.54004 c 2.39355,0 4.32066,-1.92659 4.32066,-4.32015 v -17.51004 c 0,-2.39355 -1.92711,-4.32067 -4.32066,-4.32067 z"
       id="path86-8" /><path
       style="fill:#b3b3b3;fill-opacity:1;stroke:#000000;stroke-width:1.74315;stroke-linecap:square;stroke-dasharray:none;stroke-opacity:1;paint-order:markers stroke fill"
       d="m 173.17291,123.03434 c -2.39355,0 -4.32015,1.92712 -4.32015,4.32067 v 17.51004 c 0,2.39356 1.9266,4.32015 4.32015,4.32015 h 42.54056 c 2.39355,0 4.32015,-1.92659 4.32015,-4.32015 v -17.51004 c 0,-2.39355 -1.9266,-4.32067 -4.32015,-4.32067 z"
       id="path85" /><path
       style="fill:#b3b3b3;stroke:#000000;stroke-width:1.74315;stroke-linecap:square;stroke-dasharray:none;stroke-opacity:1;paint-order:markers stroke fill"
       d="m 117.94734,123.03434 c -2.39355,0 -4.32066,1.92712 -4.32066,4.32067 v 17.51004 c 0,2.39356 1.92711,4.32015 4.32066,4.32015 h 42.54004 c 2.39356,0 4.32067,-1.92659 4.32067,-4.32015 v -17.51004 c 0,-2.39355 -1.92711,-4.32067 -4.32067,-4.32067 z"
       id="path84" /><path
       style="fill:#b3b3b3;stroke:#000000;stroke-width:1.74315;stroke-linecap:square;stroke-dasharray:none;stroke-opacity:1;paint-order:markers stroke fill"
       d="m 62.721238,123.03434 c -2.393548,0 -4.32015,1.92712 -4.32015,4.32067 v 17.51004 c 0,2.39356 1.926602,4.32015 4.32015,4.32015 H 105.2613 c 2.39353,0 4.32066,-1.92659 4.32066,-4.32015 v -17.51004 c 0,-2.39355 -1.92713,-4.32067 -4.32066,-4.32067 H 86.513846 84.004284 77.532256 Z"
       id="path83"
       sodipodi:nodetypes="sssssssscccs" /><path
       style="fill:#b3b3b3;stroke:#000000;stroke-width:1.74315;stroke-linecap:square;stroke-dasharray:none;stroke-opacity:1;paint-order:markers stroke fill"
       d="m 5.9081666,123.03434 c -2.393549,0 -4.3206666,1.92712 -4.3206666,4.32067 v 17.51004 c 0,2.39356 1.9271176,4.32015 4.3206666,4.32015 H 48.448207 c 2.393547,0 4.320666,-1.92659 4.320666,-4.32015 v -17.51004 c 0,-2.39355 -1.927119,-4.32067 -4.320666,-4.32067 z"
       id="path82" /><path
       style="fill:#b3b3b3;stroke:#000000;stroke-width:1.74315;stroke-linecap:square;stroke-dasharray:none;stroke-opacity:1;paint-order:markers stroke fill"
       d="m 200.39141,93.155812 c -2.39356,0 -4.32067,1.927117 -4.32067,4.320667 v 17.510041 c 0,2.39353 1.92711,4.32066 4.32067,4.32066 h 42.54003 c 2.39356,0 4.32067,-1.92713 4.32067,-4.32066 V 97.476479 c 0,-2.39355 -1.92711,-4.320667 -4.32067,-4.320667 z"
       id="path80" /><path
       style="fill:#cccccc;stroke:#000000;stroke-width:1.74315;stroke-linecap:square;stroke-dasharray:none;stroke-opacity:1;paint-order:markers stroke fill"
       d="m 145.16532,93.155812 c -2.39355,0 -4.32015,1.927117 -4.32015,4.320667 v 17.510041 c 0,2.39353 1.9266,4.32066 4.32015,4.32066 h 42.54056 c 2.39353,0 4.32015,-1.92713 4.32015,-4.32066 V 97.476479 c 0,-2.39355 -1.92662,-4.320667 -4.32015,-4.320667 z"
       id="path79" /><path
       style="fill:#b3b3b3;stroke:#000000;stroke-width:1.74315;stroke-linecap:square;stroke-dasharray:none;stroke-opacity:1;paint-order:markers stroke fill"
       d="m 88.311924,93.156069 c -2.393548,0 -4.320666,1.9266 -4.320666,4.32015 v 17.510031 c 0,2.39356 1.927118,4.32067 4.320666,4.32067 h 42.540056 c 2.39356,0 4.32067,-1.92711 4.32067,-4.32067 V 97.476219 c 0,-2.39355 -1.92711,-4.32015 -4.32067,-4.32015 z"
       id="path78" /><path
       style="fill:#b3b3b3;stroke:#000000;stroke-width:1.74315;stroke-linecap:square;stroke-dasharray:none;stroke-opacity:1;paint-order:markers stroke fill"
       d="m 33.085838,93.156069 c -2.39355,0 -4.32015,1.9266 -4.32015,4.32015 v 17.510031 c 0,2.39356 1.9266,4.32067 4.32015,4.32067 h 35.07361 c 5.096736,-5.21944 3.104053,-3.49338 5.096736,-5.21944 1.343149,-1.16343 0,0 6.690359,-2.46708 v -5.38915 -8.755031 c 0,-2.39355 -1.926602,-4.32015 -4.320149,-4.32015 z"
       id="path77"
       sodipodi:nodetypes="ssssccccsss" /><path
       style="fill:#b3b3b3;fill-opacity:1;stroke:#000000;stroke-width:1.74315;stroke-linecap:square;stroke-dasharray:none;stroke-opacity:1;paint-order:markers stroke fill"
       d="m 174.80072,63.633843 c -2.39355,0 -4.32015,1.927118 -4.32015,4.320666 v 17.509526 c 0,2.393548 1.9266,4.320666 4.32015,4.320666 h 42.54004 c 2.39355,0 4.32067,-1.927118 4.32067,-4.320666 V 67.954509 c 0,-2.393548 -1.92712,-4.320666 -4.32067,-4.320666 z"
       id="path75" /><path
       style="fill:#b3b3b3;stroke:#000000;stroke-width:1.74315;stroke-linecap:square;stroke-dasharray:none;stroke-opacity:1;paint-order:markers stroke fill"
       d="m 119.57515,63.633843 c -2.39355,0 -4.32067,1.927118 -4.32067,4.320666 v 17.509526 c 0,2.393548 1.92712,4.320666 4.32067,4.320666 h 42.54004 c 2.39355,0 4.32015,-1.927118 4.32015,-4.320666 V 67.954509 c 0,-2.393548 -1.9266,-4.320666 -4.32015,-4.320666 z"
       id="path74" /><path
       style="fill:#d8d8d8;fill-opacity:1;stroke:#000000;stroke-width:1.74315;stroke-linecap:square;stroke-dasharray:none;stroke-opacity:1;paint-order:markers stroke fill"
       d="m 62.721238,63.633843 c -2.393548,0 -4.32015,1.927119 -4.32015,4.320666 v 17.510043 c 0,2.393548 1.926602,4.32015 4.32015,4.32015 H 105.2613 c 2.39353,0 4.32066,-1.926602 4.32066,-4.32015 V 67.954509 c 0,-2.393547 -1.92713,-4.320666 -4.32066,-4.320666 z"
       id="path73" /><path
       style="fill:#cccccc;stroke:#000000;stroke-width:1.74315;stroke-linecap:square;stroke-dasharray:none;stroke-opacity:1;paint-order:markers stroke fill"
       d="m 5.9081666,63.633843 c -2.393549,0 -4.3206666,1.927119 -4.3206666,4.320666 v 17.510043 c 0,2.393548 1.9271176,4.32015 4.3206666,4.32015 H 48.448207 c 2.393547,0 4.320666,-1.926602 4.320666,-4.32015 V 67.954509 c 0,-2.393547 -1.927119,-4.320666 -4.320666,-4.320666 z"
       id="path72" /><path
       style="fill:#b3b3b3;stroke:#000000;stroke-width:1.74315;stroke-linecap:square;stroke-dasharray:none;stroke-opacity:1;paint-order:markers stroke fill"
       d="m 200.39141,34.846196 c -2.39356,0 -4.32067,1.927117 -4.32067,4.320667 v 17.510042 c 0,2.39355 1.92711,4.320667 4.32067,4.320667 h 21.27001 l 6.01865,-9.183649 -9.59994,-8.012746 17.46515,6.736018 -6.91132,10.460377 h 14.29748 c 2.39356,0 4.32067,-1.927117 4.32067,-4.320667 V 39.166863 c 0,-2.39355 -1.92711,-4.320667 -4.32067,-4.320667 z"
       id="path70"
       sodipodi:nodetypes="sssscccccsssss" /><path
       style="fill:#b3b3b3;stroke:#000000;stroke-width:1.74315;stroke-linecap:square;stroke-dasharray:none;stroke-opacity:1;paint-order:markers stroke fill"
       d="m 145.16532,34.846196 c -2.39355,0 -4.32015,1.927117 -4.32015,4.320667 v 17.510042 c 0,2.39355 1.9266,4.320667 4.32015,4.320667 h 42.54056 c 2.39353,0 4.32015,-1.927117 4.32015,-4.320667 V 39.166863 c 0,-2.39355 -1.92662,-4.320667 -4.32015,-4.320667 z"
       id="path69" /><path
       style="fill:#b3b3b3;stroke:#000000;stroke-width:1.74315;stroke-linecap:square;stroke-dasharray:none;stroke-opacity:1;paint-order:markers stroke fill"
       d="m 88.311924,34.846196 c -2.393548,0 -4.320666,1.927117 -4.320666,4.320667 v 17.510042 c 0,2.39355 1.927118,4.320667 4.320666,4.320667 h 42.540056 c 2.39356,0 4.32067,-1.927117 4.32067,-4.320667 V 39.166863 c 0,-2.39355 -1.92711,-4.320667 -4.32067,-4.320667 z"
       id="path68" /><path
       style="fill:#b3b3b3;stroke:#000000;stroke-width:1.74315;stroke-linecap:square;stroke-dasharray:none;stroke-opacity:1;paint-order:markers stroke fill"
       d="m 33.085838,34.846196 c -2.39355,0 -4.32015,1.927117 -4.32015,4.320667 v 17.510042 c 0,2.39355 1.9266,4.320667 4.32015,4.320667 h 42.540556 c 2.393547,0 4.320149,-1.927117 4.320149,-4.320667 V 39.166863 c 0,-2.39355 -1.926602,-4.320667 -4.320149,-4.320667 z"
       id="path67" /><path
       id="path66"
       style="fill:#b3b3b3;stroke:#000000;stroke-width:1.74315;stroke-linecap:square;stroke-dasharray:none;stroke-opacity:1;paint-order:markers stroke fill"
       d="m 10.749732,34.845939 c -2.393548,0 -4.3206669,1.926603 -4.3206669,4.32015 v 17.510042 c 0,2.393547 1.9271189,4.320667 4.3206669,4.320667 h 0.362769 v 5.17e-4 h 11.404472 c 0.0035,0 0.0068,-5.09e-4 0.01033,-5.17e-4 H 23.7417 v -0.17725 c 1.792927,-0.525914 3.095935,-2.175428 3.095935,-4.1429 V 39.166606 c 0,-1.967472 -1.303008,-3.616593 -3.095935,-4.142383 v -0.178284 z" /><path
       id="path66-6"
       style="fill:#a6a1a1;fill-opacity:1;stroke:#000000;stroke-width:1.74315;stroke-linecap:square;stroke-dasharray:none;stroke-opacity:1;paint-order:markers stroke fill"
       d="m 10.749729,92.42123 c -2.3935475,0 -4.3206665,1.926603 -4.3206665,4.32015 v 17.51008 c 0,2.39355 1.927119,4.32067 4.3206665,4.32067 h 0.362769 v 5.1e-4 h 11.404473 c 0.0035,0 0.0068,-5e-4 0.01034,-5.1e-4 h 1.214397 v -0.17725 c 1.792927,-0.52592 3.095935,-2.17543 3.095935,-4.1429 V 96.741897 c 0,-1.967472 -1.303008,-3.616593 -3.095935,-4.142383 V 92.42123 Z" /><path
       id="path66-2"
       style="fill:#b3b3b3;stroke:#000000;stroke-width:1.74315;stroke-linecap:square;stroke-dasharray:none;stroke-opacity:1;paint-order:markers stroke fill"
       d="m 10.74973,153.6469 c -2.3935475,0 -4.3206665,1.9266 -4.3206665,4.32015 v 17.51004 c 0,2.39355 1.927119,4.32067 4.3206665,4.32067 h 0.362769 v 5.2e-4 h 11.404472 c 0.0035,0 0.0068,-5.1e-4 0.01034,-5.2e-4 h 1.214397 v -0.17725 c 1.792927,-0.52591 3.095935,-2.17543 3.095935,-4.1429 v -17.51004 c 0,-1.96747 -1.303008,-3.61659 -3.095935,-4.14238 v -0.17829 z" /><path
       id="path66-0"
       style="fill:#b3b3b3;stroke:#000000;stroke-width:1.74315;stroke-linecap:square;stroke-dasharray:none;stroke-opacity:1;paint-order:markers stroke fill"
       d="m 10.74973,213.63918 c -2.3935475,0 -4.3206665,1.9266 -4.3206665,4.32015 v 17.51004 c 0,2.39355 1.927119,4.32067 4.3206665,4.32067 h 0.362769 v 5.1e-4 h 11.404472 c 0.0035,0 0.0068,-5e-4 0.01034,-5.1e-4 h 1.214397 v -0.17725 c 1.792927,-0.52592 3.095935,-2.17543 3.095935,-4.1429 v -17.51004 c 0,-1.96748 -1.303008,-3.6166 -3.095935,-4.14239 v -0.17828 z" /><path
       id="path66-8"
       style="fill:#cccccc;stroke:#000000;stroke-width:1.74315;stroke-linecap:square;stroke-dasharray:none;stroke-opacity:1;paint-order:markers stroke fill"
       d="m 254.81238,34.485235 c -2.39354,0 -4.32066,1.926603 -4.32066,4.32015 v 17.510042 c 0,2.393547 1.92712,4.320667 4.32066,4.320667 h 0.36277 v 5.17e-4 h 11.40447 c 0.004,0 0.007,-5.09e-4 0.0103,-5.17e-4 h 1.2144 v -0.17725 c 1.79293,-0.525914 3.09594,-2.175428 3.09594,-4.1429 V 38.805902 c 0,-1.967472 -1.30301,-3.616593 -3.09594,-4.142383 v -0.178284 z" /><path
       id="path66-6-1"
       style="fill:#b3b3b3;stroke:#000000;stroke-width:1.74315;stroke-linecap:square;stroke-dasharray:none;stroke-opacity:1;paint-order:markers stroke fill"
       d="m 255.34155,93.118861 c -2.39355,0 -4.32066,1.9266 -4.32066,4.32015 v 17.510069 c 0,2.39355 1.92711,4.32067 4.32066,4.32067 h 0.36277 v 5.1e-4 h 11.40447 c 0.004,0 0.007,-5e-4 0.0103,-5.1e-4 h 1.2144 v -0.17725 c 1.79293,-0.52592 3.09593,-2.17543 3.09593,-4.1429 V 97.439531 c 0,-1.96748 -1.303,-3.6166 -3.09593,-4.14239 v -0.17828 z" /><path
       id="path66-2-3"
       style="fill:#b3b3b3;stroke:#000000;stroke-width:1.74315;stroke-linecap:square;stroke-dasharray:none;stroke-opacity:1;paint-order:markers stroke fill"
       d="m 253.75404,153.81535 c -2.39354,0 -4.32066,1.9266 -4.32066,4.32015 v 17.51004 c 0,2.39355 1.92712,4.32067 4.32066,4.32067 h 0.36277 v 5.2e-4 h 11.40447 c 0.004,0 0.007,-5.1e-4 0.0103,-5.2e-4 h 1.2144 v -0.17725 c 1.79293,-0.52591 3.09593,-2.17543 3.09593,-4.1429 v -17.51004 c 0,-1.96747 -1.303,-3.61659 -3.09593,-4.14238 v -0.17829 z" /><path
       id="path66-0-4"
       style="fill:#b3b3b3;stroke:#000000;stroke-width:1.74315;stroke-linecap:square;stroke-dasharray:none;stroke-opacity:1;paint-order:markers stroke fill"
       d="m 254.81238,213.27846 c -2.39354,0 -4.32066,1.9266 -4.32066,4.32015 v 17.51004 c 0,2.39355 1.92712,4.32067 4.32066,4.32067 h 0.36277 v 5.1e-4 h 11.40447 c 0.004,0 0.007,-5e-4 0.0103,-5.1e-4 h 1.2144 v -0.17725 c 1.79293,-0.52592 3.09593,-2.17543 3.09593,-4.1429 v -17.51004 c 0,-1.96748 -1.303,-3.6166 -3.09593,-4.14239 v -0.17828 z" /><path
       style="fill:#b3b3b3;stroke:#000000;stroke-width:1.74315;stroke-linecap:square;stroke-dasharray:none;stroke-opacity:1;paint-order:markers stroke fill"
       d="m 174.80072,6.0585458 c -2.39355,0 -4.32015,1.9271177 -4.32015,4.3206662 v 17.509529 c 0,2.39355 1.9266,4.320667 4.32015,4.320667 h 42.54004 c 2.39355,0 4.32067,-1.927117 4.32067,-4.320667 V 10.379212 c 0,-2.3935485 -1.92712,-4.3206662 -4.32067,-4.3206662 z"
       id="path64" /><path
       style="fill:#b3b3b3;stroke:#000000;stroke-width:1.74315;stroke-linecap:square;stroke-dasharray:none;stroke-opacity:1;paint-order:markers stroke fill"
       d="m 119.57515,6.0585458 c -2.39355,0 -4.32067,1.9271177 -4.32067,4.3206662 v 17.509529 c 0,2.39355 1.92712,4.320667 4.32067,4.320667 h 42.54004 c 2.39355,0 4.32015,-1.927117 4.32015,-4.320667 V 10.379212 c 0,-2.3935485 -1.9266,-4.3206662 -4.32015,-4.3206662 z"
       id="path63" /><path
       style="fill:#b3b3b3;stroke:#000000;stroke-width:1.74315;stroke-linecap:square;stroke-dasharray:none;stroke-opacity:1;paint-order:markers stroke fill"
       d="m 62.721238,6.0585458 c -2.393548,0 -4.32015,1.9271177 -4.32015,4.3206662 v 17.509529 c 0,2.39355 1.926602,4.320667 4.32015,4.320667 H 105.2613 c 2.39353,0 4.32066,-1.927117 4.32066,-4.320667 V 10.379212 c 0,-2.3935485 -1.92713,-4.3206662 -4.32066,-4.3206662 z"
       id="path62" /><path
       style="fill:#b3b3b3;stroke:#000000;stroke-width:1.74315;stroke-linecap:square;stroke-dasharray:none;stroke-opacity:1;paint-order:markers stroke fill"
       d="m 5.9081666,6.0585458 c -2.393549,0 -4.3206666,1.9271177 -4.3206666,4.3206662 v 17.509529 c 0,2.39355 1.9271176,4.320667 4.3206666,4.320667 H 48.448207 c 2.393547,0 4.320666,-1.927117 4.320666,-4.320667 V 10.379212 c 0,-2.3935485 -1.927119,-4.3206662 -4.320666,-4.3206662 z"
       id="path61" /><path
       style="fill:#b3b3b3;stroke:#000000;stroke-width:1.74315;stroke-linecap:square;stroke-dasharray:none;stroke-opacity:1;paint-order:markers stroke fill"
       d="m 230.02681,6.058287 c -2.39356,0 -4.32067,1.9271177 -4.32067,4.320667 v 17.510045 c 0,2.393551 1.92711,4.320668 4.32067,4.320668 h 42.54004 c 2.39353,0 4.32066,-1.927117 4.32066,-4.320668 V 10.378954 c 0,-2.3935493 -1.92713,-4.320667 -4.32066,-4.320667 z"
       id="rect2" /><path
       style="fill:none;fill-opacity:1;stroke:#06ea1e;stroke-width:3.365;stroke-linecap:round;stroke-linejoin:miter;stroke-dasharray:none;stroke-opacity:1"
       d="m 42.010773,278.79161 4.573888,-33.32379 7.362238,-11.89469 1.3e-5,-24.99665 -11.935881,-12.32578 -2.56e-4,-17.32762 -12.618138,-26.15087"
       id="path13"
       sodipodi:nodetypes="ccccccc" /><ellipse
       style="fill:#06ea1e;fill-opacity:1;stroke:none;stroke-width:2.50789;stroke-linecap:square;stroke-dasharray:none;stroke-opacity:1;paint-order:markers stroke fill"
       id="path14"
       cx="48.183445"
       cy="176.78592"
       rx="6.1726713"
       ry="3.0085907" /><ellipse
       style="fill:#06ea1e;fill-opacity:1;stroke:none;stroke-width:3.365;stroke-linecap:square;stroke-dasharray:none;stroke-opacity:1;paint-order:markers stroke fill"
       id="path15"
       cx="38.118206"
       cy="245.46768"
       rx="8.4664545"
       ry="3.3072619" /><ellipse
       style="fill:#06ea1e;fill-opacity:1;stroke:none;stroke-width:3.365;stroke-linecap:square;stroke-dasharray:none;stroke-opacity:1;paint-order:markers stroke fill"
       id="path16"
       cx="-101.00802"
       cy="187.69853"
       rx="7.1915092"
       ry="3.0442808"
       transform="rotate(-44.462876)" /><path
       style="fill:none;stroke:#3c8f41;stroke-width:4.365;stroke-linecap:round;stroke-linejoin:round;stroke-dasharray:none;stroke-opacity:1"
       d="M 7.4956666,123.03434 H 28.765687 l 4.320151,-29.878273 h 42.540555 l 8.364863,13.075183 25.590694,13.07567 25.5907,-4.32067"
       id="path1" /><ellipse
       style="fill:#3c8f41;fill-opacity:1;stroke:none;stroke-width:4.36499;stroke-linecap:round;stroke-linejoin:round;stroke-dasharray:none;stroke-opacity:1;paint-order:markers stroke fill"
       id="path3"
       cx="127.19933"
       cy="105.56071"
       rx="2.8626742"
       ry="6.9219923"
       transform="rotate(10.098625)" /><ellipse
       style="fill:#3c8f41;fill-opacity:1;stroke:none;stroke-width:4.36499;stroke-linecap:round;stroke-linejoin:round;stroke-dasharray:none;stroke-opacity:1;paint-order:markers stroke fill"
       id="path3-2"
       cx="-48.886276"
       cy="123.43393"
       rx="2.8626742"
       ry="6.9219923"
       transform="rotate(-35.921511)" /><ellipse
       style="fill:#3c8f41;fill-opacity:1;stroke:none;stroke-width:2.17012;stroke-linecap:round;stroke-linejoin:round;stroke-dasharray:none;stroke-opacity:1;paint-order:markers stroke fill"
       id="path3-2-1"
       cx="-62.848568"
       cy="78.019173"
       rx="1.3836827"
       ry="3.5396965"
       transform="matrix(0.60664613,-0.79497199,0.86814427,0.49631192,0,0)"
       inkscape:transform-center-x="-12.796991"
       inkscape:transform-center-y="16.2343" /><path
       style="fill:none;stroke:#049400;stroke-width:2.265;stroke-linecap:butt;stroke-linejoin:miter;stroke-dasharray:none;stroke-opacity:1"
       d="M 5.9081664,209.79416 H 27.178188"
       id="path2" /></g></svg>
